<svg width="130" height="130" viewBox="0 0 130 130" fill="none" xmlns="http://www.w3.org/2000/svg">
<g clip-path="url(#clip0)">
<path d="M43.7542 126C55.2059 126 64.5 116.816 64.5 105.5V85H43.7542C32.3024 85 23.0083 94.184 23.0083 105.5C23.0083 116.816 32.3024 126 43.7542 126Z" fill="#0ACF83"/>
<path d="M23 64.2437C23 52.9277 32.2941 43.7438 43.7458 43.7438H64.4917V84.7437H43.7458C32.2941 84.7437 23 75.5597 23 64.2437Z" fill="#A259FF"/>
<path d="M23 23.5C23 12.184 32.2941 3 43.7458 3H64.4917V44H43.7458C32.2941 44 23 34.816 23 23.5Z" fill="#F24E1E"/>
<path d="M64.1122 3H84.858C96.3097 3 105.604 12.184 105.604 23.5C105.604 34.816 96.3097 44 84.858 44H64.1122V3Z" fill="#FF7262"/>
<path d="M105.604 64.2437C105.604 75.5597 96.3097 84.7437 84.858 84.7437C73.4063 84.7437 64.1122 75.5597 64.1122 64.2437C64.1122 52.9277 73.4063 43.7438 84.858 43.7438C96.3097 43.7438 105.604 52.9277 105.604 64.2437Z" fill="#1ABCFE"/>
</g>
<defs>
<clipPath id="clip0">
<rect width="130" height="130" fill="white"/>
</clipPath>
</defs>
</svg>
