<svg width="130" height="130" viewBox="0 0 130 130" fill="none" xmlns="http://www.w3.org/2000/svg">
<path d="M18.0273 116.797L7.61719 0H122.129L111.719 116.797L64.7461 130" fill="#E34F26"/>
<path d="M65 119.844L102.832 109.434L111.719 9.39453H65" fill="#EF652A"/>
<path d="M65 52.8125H45.957L44.6875 38.0859H65V23.8672H64.7461H28.9453L29.1992 27.6758L32.7539 67.2852H65V52.8125ZM65 90.1367H64.7461L48.75 85.8203L47.7344 74.3945H40.1172H33.5156L35.293 96.9922L64.7461 105.117H65V90.1367Z" fill="#EBEBEB"/>
<path d="M64.7461 52.8125V67.2852H82.5195L80.7422 85.8203L64.7461 90.1367V105.117L94.1992 96.9922L94.4531 94.4531L97.7539 56.6211L98.2617 52.8125H94.1992H64.7461ZM64.7461 23.8672V32.7539V38.0859H99.5312L99.7852 35.0391L100.547 27.6758L100.801 23.8672H64.7461Z" fill="white"/>
</svg>
