<svg width="130" height="130" viewBox="0 0 130 130" fill="none" xmlns="http://www.w3.org/2000/svg">
<g clip-path="url(#clip0)">
<path fill-rule="evenodd" clip-rule="evenodd" d="M129.043 29.7993C129.09 29.9749 129.114 30.156 129.114 30.3379V58.6119C129.114 58.9748 129.019 59.3313 128.838 59.6453C128.658 59.9593 128.398 60.2198 128.085 60.4003L104.51 74.0631V101.144C104.51 101.881 104.121 102.561 103.486 102.932L54.2752 131.449C54.1626 131.513 54.0397 131.554 53.9168 131.598C53.8707 131.614 53.8272 131.642 53.7786 131.655C53.4346 131.746 53.073 131.746 52.729 131.655C52.6726 131.639 52.6214 131.608 52.5677 131.588C52.455 131.547 52.3373 131.51 52.2298 131.449L3.02912 102.932C2.71656 102.752 2.45686 102.491 2.27618 102.177C2.09551 101.863 2.00025 101.507 2 101.144L2 16.322C2 16.1365 2.0256 15.9561 2.07168 15.7809C2.08704 15.7216 2.12288 15.6675 2.14336 15.6082C2.18176 15.5 2.2176 15.3892 2.27392 15.2887C2.31232 15.2217 2.36864 15.1676 2.41472 15.1057C2.4736 15.0233 2.52736 14.9382 2.59648 14.8661C2.65536 14.8068 2.73216 14.763 2.79872 14.7115C2.87296 14.6496 2.93952 14.5826 3.024 14.5336H3.02656L27.6282 0.275529C27.9397 0.0950939 28.2928 0.0001297 28.6522 0.0001297C29.0116 0.0001297 29.3647 0.0950939 29.6762 0.275529L54.2778 14.5336H54.2829C54.3648 14.5852 54.4339 14.6496 54.5082 14.7089C54.5747 14.7604 54.649 14.8068 54.7078 14.8635C54.7795 14.9382 54.8307 15.0233 54.8922 15.1057C54.9357 15.1676 54.9946 15.2217 55.0304 15.2887C55.0893 15.3918 55.1226 15.5 55.1635 15.6082C55.184 15.6675 55.2198 15.7216 55.2352 15.7835C55.2823 15.9591 55.3064 16.1401 55.3069 16.322V69.301L75.8074 57.4188V30.3353C75.8074 30.155 75.833 29.972 75.879 29.7993C75.897 29.7375 75.9302 29.6834 75.9507 29.6241C75.9917 29.5159 76.0275 29.4051 76.0838 29.3046C76.1222 29.2376 76.1786 29.1835 76.2221 29.1216C76.2835 29.0391 76.3347 28.9541 76.4064 28.882C76.4653 28.8227 76.5395 28.7789 76.6061 28.7273C76.6829 28.6655 76.7494 28.5985 76.8314 28.5495H76.8339L101.438 14.2914C101.749 14.1107 102.103 14.0156 102.462 14.0156C102.822 14.0156 103.175 14.1107 103.486 14.2914L128.088 28.5495C128.175 28.6011 128.241 28.6655 128.318 28.7248C128.382 28.7763 128.456 28.8227 128.515 28.8794C128.587 28.9541 128.638 29.0391 128.7 29.1216C128.746 29.1835 128.802 29.2376 128.838 29.3046C128.897 29.4051 128.93 29.5159 128.971 29.6241C128.994 29.6834 129.027 29.7375 129.043 29.7993V29.7993ZM125.013 57.4188V33.907L116.404 38.8959L104.51 45.7891V69.301L125.016 57.4188H125.013ZM100.412 99.9509V76.4236L88.7123 83.1494L55.3043 102.342V126.091L100.412 99.9509ZM6.10112 19.8911V99.9509L51.2032 126.089V102.345L27.641 88.9217L27.6333 88.9165L27.623 88.9114C27.5437 88.865 27.4771 88.798 27.4029 88.7413C27.3389 88.6898 27.2646 88.6485 27.2083 88.5918L27.2032 88.5841C27.1366 88.5197 27.0906 88.4398 27.0342 88.3676C26.983 88.2981 26.9216 88.2388 26.8806 88.1666L26.8781 88.1589C26.832 88.0816 26.8038 87.9888 26.7706 87.9012C26.7373 87.8239 26.6938 87.7518 26.6733 87.6693V87.6667C26.6477 87.5688 26.6426 87.4657 26.6323 87.3652C26.6221 87.2879 26.6016 87.2106 26.6016 87.1333V87.1281V31.7733L14.7104 24.8774L6.10112 19.8936V19.8911ZM28.6547 4.44499L8.1568 16.322L28.6496 28.1991L49.145 16.3195L28.6496 4.44499H28.6547ZM39.3146 78.5676L51.2058 71.6769V19.8911L42.5965 24.88L30.7027 31.7733V83.5591L39.3146 78.5676ZM102.462 18.4609L81.9667 30.3379L102.462 42.215L122.955 30.3353L102.462 18.4609V18.4609ZM100.412 45.7891L88.5178 38.8959L79.9085 33.907V57.4188L91.7997 64.3095L100.412 69.301V45.7891ZM53.2512 98.7733L83.3133 81.4976L98.3405 72.8649L77.8605 60.9956L54.2803 74.661L32.7891 87.1153L53.2512 98.7733V98.7733Z" fill="#FF2D20"/>
</g>
<defs>
<clipPath id="clip1">
<rect width="130" height="130" fill="white"/>
</clipPath>
</defs>
</svg>
