<svg width="130" height="130" viewBox="0 0 130 130" fill="none" xmlns="http://www.w3.org/2000/svg">
<g clip-path="url(#clip0)">
<g clip-path="url(#clip1)">
<path d="M68.5797 130.001C66.8998 130.001 65.2314 129.56 63.7586 128.711L48.4128 119.618C46.1208 118.336 47.2392 117.882 47.9952 117.62C51.0512 116.549 51.6714 116.308 54.9334 114.453C55.2763 114.258 55.725 114.327 56.076 114.534L67.8652 121.536C68.2909 121.766 68.895 121.766 69.2897 121.536L115.257 94.98C115.683 94.7382 115.959 94.243 115.959 93.7363V40.6479C115.959 40.1182 115.683 39.646 115.248 39.3811L69.2989 12.8484C68.8731 12.5951 68.3093 12.5951 67.8836 12.8484L21.944 39.3811C21.4987 39.6345 21.2157 40.1297 21.2157 40.6364V93.7248C21.2157 94.2315 21.4918 94.7152 21.9291 94.957L34.5168 102.235C41.3515 105.655 45.5283 101.625 45.5283 97.5711V45.1736C45.5283 44.4251 46.1151 43.8493 46.863 43.8493H52.6851C53.41 43.8493 54.0083 44.4251 54.0083 45.1736V97.5942C54.0083 106.715 49.0376 111.955 40.3965 111.955C37.7386 111.955 35.6444 111.955 29.7993 109.076L17.7408 102.12C14.7607 100.393 12.9197 97.1681 12.9197 93.7248V40.6364C12.9197 37.1816 14.7607 33.9571 17.7408 32.2528L63.754 5.68554C66.6651 4.03876 70.5312 4.03876 73.4192 5.68554L119.375 32.2643C122.343 33.9802 124.196 37.1931 124.196 40.6479V93.7363C124.196 97.1796 122.343 100.393 119.375 102.12L73.4192 128.687C71.9464 129.539 70.278 129.977 68.5751 129.977" fill="#689F63"/>
<path d="M82.7783 93.4196C62.6655 93.4196 58.4485 84.1793 58.4485 76.429C58.4485 75.692 59.0422 75.1047 59.7797 75.1047H65.7169C66.3728 75.1047 66.9251 75.5826 67.0286 76.231C67.9261 82.286 70.5956 85.34 82.7576 85.34C92.4458 85.34 96.565 83.1497 96.565 78.0079C96.565 75.0483 95.3914 72.8487 80.3413 71.3747C67.7535 70.131 59.9754 67.3556 59.9754 57.2792C59.9754 47.9973 67.7996 42.4697 80.9051 42.4697C95.6215 42.4697 102.916 47.5828 103.837 58.569C103.871 58.949 103.733 59.3175 103.48 59.5939C103.227 59.8588 102.87 60.02 102.502 60.02H96.5305C95.9091 60.02 95.3684 59.5824 95.2418 58.9835C93.8035 52.6152 90.3287 50.5769 80.8821 50.5769C70.3079 50.5769 69.0767 54.262 69.0767 57.0258C69.0767 60.377 70.5265 61.3558 84.7942 63.2444C98.9238 65.1215 105.632 67.7702 105.632 77.7084C105.632 87.7273 97.2784 93.4738 82.7116 93.4738L82.7783 93.4196ZM138.701 37.1724H140.242C141.508 37.1724 141.75 36.2856 141.75 35.7674C141.75 34.4085 140.818 34.4086 140.3 34.4086H138.712L138.701 37.1724ZM136.825 32.8193H140.242C141.416 32.8193 143.717 32.8193 143.717 35.445C143.717 37.276 142.544 37.656 141.842 37.8863C143.211 37.9785 143.303 38.8767 143.487 40.1435C143.579 40.9381 143.729 42.3085 144.005 42.7691H141.899C141.842 42.3085 141.52 39.775 141.52 39.6368C141.382 39.0725 141.186 38.7961 140.484 38.7961H138.747V42.7806H136.825V32.8193ZM132.717 37.7712C132.717 41.8939 136.043 45.2335 140.127 45.2335C144.247 45.2335 147.572 41.8248 147.572 37.7712C147.572 33.637 144.201 30.3549 140.116 30.3549C136.089 30.3549 132.706 33.5909 132.706 37.7597L132.717 37.7712ZM148.999 37.7942C148.999 42.677 145.006 46.6615 140.139 46.6615C135.306 46.6615 131.279 42.723 131.279 37.7942C131.279 32.7733 135.398 28.927 140.139 28.927C144.914 28.927 148.987 32.7848 148.987 37.7942" fill="#689F63"/>
</g>
</g>
<defs>
<clipPath id="clip2">
<rect width="130" height="130" fill="white"/>
</clipPath>
<clipPath id="clip1">
<rect width="509" height="312" fill="white" transform="translate(-183 -182)"/>
</clipPath>
</defs>
</svg>
