<svg width="130" height="130" viewBox="0 0 130 130" fill="none" xmlns="http://www.w3.org/2000/svg">
<g clip-path="url(#clip0)">
<path d="M73.7951 34.8891L69.4831 42.3661L54.7365 16.7886L9.4667 95.2971H40.1174C40.1174 99.4266 43.4603 102.774 47.584 102.774H9.4667C6.79937 102.774 4.33489 101.348 3.00145 99.035C1.66801 96.7217 1.66814 93.8718 3.00181 91.5586L48.2716 13.05C49.6053 10.7365 52.0704 9.31133 54.738 9.31133C57.4057 9.31133 59.8707 10.7365 61.2045 13.05L73.7951 34.8891V34.8891Z" fill="#00C58E"/>
<path d="M106.474 91.5586L78.1071 42.3661L73.7951 34.8891L69.4831 42.3661L41.1191 91.5586C39.7855 93.8718 39.7853 96.7217 41.1188 99.035C42.4522 101.348 44.9167 102.774 47.584 102.774H100C102.668 102.774 105.133 101.35 106.468 99.0363C107.802 96.7228 107.802 93.8723 106.468 91.5586H106.474ZM47.584 95.2971L73.7951 49.8431L100 95.2971H47.584L47.584 95.2971Z" fill="#2F495E"/>
<path d="M126.756 99.0356C125.422 101.349 122.958 102.774 120.291 102.774H100C104.124 102.774 107.467 99.4266 107.467 95.2971H120.275L83.9312 32.2628L78.1072 42.3661L73.7952 34.8891L77.4663 28.5243C78.8 26.2108 81.265 24.7856 83.9327 24.7856C86.6004 24.7856 89.0654 26.2108 90.3992 28.5243L126.756 91.5586C128.089 93.872 128.089 96.7222 126.756 99.0356V99.0356Z" fill="#108775"/>
</g>
<defs>
<clipPath id="clip3">
<rect width="130" height="130" fill="white"/>
</clipPath>
</defs>
</svg>
