<svg width="130" height="130" viewBox="0 0 130 130" fill="none" xmlns="http://www.w3.org/2000/svg">
<g clip-path="url(#clip0)">
<g clip-path="url(#clip1)">
<path d="M61.5529 7C30.074 7 32.0398 20.6511 32.0398 20.6511L32.0749 34.7935H62.1143V39.0398H20.1433C20.1433 39.0398 0 36.7553 0 68.5178C-2.24594e-06 100.28 17.5815 99.1538 17.5815 99.1538H28.0743V84.4148C28.0743 84.4148 27.5087 66.8333 45.3751 66.8333C63.2414 66.8333 75.1689 66.8333 75.1689 66.8333C75.1689 66.8333 91.9082 67.1039 91.9082 50.6555C91.9082 34.2071 91.9082 23.4585 91.9082 23.4585C91.9082 23.4585 94.4497 7 61.5529 7ZM44.989 16.5102C47.9777 16.5102 50.3933 18.9258 50.3933 21.9145C50.3933 24.9032 47.9777 27.3188 44.989 27.3188C42.0003 27.3188 39.5847 24.9032 39.5847 21.9145C39.5847 18.9258 42.0003 16.5102 44.989 16.5102Z" fill="url(#paint0_linear)"/>
<path d="M62.4469 130.354C93.9257 130.354 91.9599 116.703 91.9599 116.703L91.9249 102.56H61.8854V98.3142H103.856C103.856 98.3142 124 100.599 124 68.8362C124 37.0738 106.418 38.2002 106.418 38.2002H95.9255V52.9392C95.9255 52.9392 96.4911 70.5207 78.6247 70.5207C60.7584 70.5207 48.8309 70.5207 48.8309 70.5207C48.8309 70.5207 32.0916 70.2501 32.0916 86.6985C32.0916 103.147 32.0916 113.895 32.0916 113.895C32.0916 113.895 29.5501 130.354 62.4469 130.354H62.4469ZM79.0107 120.844C76.022 120.844 73.6064 118.428 73.6064 115.44C73.6064 112.451 76.022 110.035 79.0107 110.035C81.9994 110.035 84.415 112.451 84.415 115.44C84.415 118.428 81.9994 120.844 79.0107 120.844Z" fill="url(#paint1_linear)"/>
</g>
</g>
<defs>
<linearGradient id="paint0_linear" x1="11.9166" y1="17.7822" x2="73.2308" y2="79.3016" gradientUnits="userSpaceOnUse">
<stop stop-color="#387EB8"/>
<stop offset="1" stop-color="#366994"/>
</linearGradient>
<linearGradient id="paint1_linear" x1="49.6345" y1="56.9181" x2="115.486" y2="120.007" gradientUnits="userSpaceOnUse">
<stop stop-color="#FFE052"/>
<stop offset="1" stop-color="#FFC331"/>
</linearGradient>
<clipPath id="clip4">
<rect width="130" height="130" fill="white"/>
</clipPath>
<clipPath id="clip1">
<rect width="163.59" height="171.253" fill="white" transform="translate(0 -41)"/>
</clipPath>
</defs>
</svg>
