<svg width="175" height="131" viewBox="0 0 175 131" fill="none" xmlns="http://www.w3.org/2000/svg">
<g clip-path="url(#clip0)">
<path d="M150.592 75.2937C144.491 75.3256 139.188 76.7932 134.747 78.9627C133.118 75.7404 131.489 72.869 131.201 70.7633C130.882 68.3066 130.498 66.8071 130.882 63.8719C131.265 60.9367 132.99 56.7572 132.958 56.4381C132.926 56.1191 132.575 54.6196 129.061 54.5877C125.547 54.5558 122.512 55.2577 122.16 56.1829C121.809 57.1081 121.138 59.2138 120.691 61.3833C120.084 64.5738 113.663 75.9637 109.989 81.9298C108.807 79.6008 107.785 77.5589 107.561 75.9318C107.242 73.4751 106.858 71.9756 107.242 69.0404C107.625 66.1052 109.35 61.9257 109.318 61.6067C109.286 61.2876 108.935 59.7881 105.421 59.7562C101.907 59.7243 98.8717 60.4262 98.5203 61.3514C98.1689 62.2766 97.7856 64.4462 97.0508 66.5519C96.3161 68.6576 87.7865 87.6727 85.5503 92.5859C84.4002 95.1064 83.4099 97.1164 82.7071 98.4883C82.7071 98.4883 82.6751 98.584 82.5793 98.7435C81.9723 99.924 81.6209 100.562 81.6209 100.562C81.6209 100.562 81.6209 100.562 81.6209 100.594C81.1417 101.455 80.6306 102.253 80.375 102.253C80.1833 102.253 79.8319 99.9559 80.4389 96.8292C81.7168 90.225 84.7516 79.9518 84.7197 79.6008C84.7197 79.4094 85.2947 77.6227 82.739 76.6975C80.2472 75.7723 79.3528 77.3037 79.1291 77.3037C78.9055 77.3037 78.7458 77.8461 78.7458 77.8461C78.7458 77.8461 81.5251 66.2966 73.4427 66.2966C68.3953 66.2966 61.4311 71.8161 57.9809 76.7932C55.8086 77.9737 51.1764 80.4941 46.2248 83.206C44.34 84.2589 42.3913 85.3117 40.5704 86.3008C40.4426 86.1731 40.3148 86.0136 40.187 85.886C30.4115 75.4532 12.3301 68.0833 13.0968 54.0772C13.3843 48.9725 15.1414 35.5726 47.8221 19.3012C74.7206 6.06087 96.1244 9.72989 99.8301 17.8655C105.133 29.4788 88.3615 51.0463 60.5685 54.1729C49.9625 55.3534 44.4039 51.2696 42.9982 49.7382C41.5287 48.1429 41.3051 48.0472 40.762 48.3663C39.8675 48.8448 40.4426 50.2805 40.762 51.1101C41.5926 53.2796 45.0108 57.1081 50.7931 58.9905C55.9044 60.6495 68.3314 61.5747 83.3779 55.7681C100.213 49.2596 113.375 31.1697 109.51 16.0151C105.644 0.637098 80.0875 -4.43572 55.9044 4.1466C41.5287 9.25132 25.9391 17.2913 14.7261 27.7559C1.4046 40.1987 -0.703835 51.0144 0.158706 55.5448C3.25746 71.6247 25.4599 82.0894 34.3409 89.8422C33.8936 90.0974 33.4783 90.3207 33.1269 90.5122C28.6865 92.7136 11.7551 101.551 7.53822 110.899C2.74633 121.491 8.30493 129.085 11.9787 130.106C23.3834 133.264 35.1076 127.585 41.4009 118.205C47.6943 108.825 46.9276 96.6378 44.0205 91.0545C43.9886 90.9907 43.9566 90.9269 43.8927 90.8631C45.0428 90.1931 46.2248 89.4912 47.3748 88.8212C49.643 87.4812 51.8792 86.2369 53.796 85.216C52.7098 88.1831 51.9112 91.7245 51.5278 96.8292C51.0486 102.827 53.5085 110.612 56.735 113.675C58.1726 115.015 59.8657 115.047 60.9519 115.047C64.7215 115.047 66.4146 111.92 68.2994 108.219C70.5996 103.689 72.676 98.4245 72.676 98.4245C72.676 98.4245 70.0884 112.654 77.1165 112.654C79.6722 112.654 82.2598 109.336 83.4099 107.645C83.4099 107.677 83.4099 107.677 83.4099 107.677C83.4099 107.677 83.4738 107.581 83.6016 107.358C83.8571 106.943 84.0169 106.688 84.0169 106.688C84.0169 106.688 84.0169 106.656 84.0169 106.624C85.0391 104.837 87.3392 100.785 90.7575 94.0535C95.166 85.3755 99.4148 74.528 99.4148 74.528C99.4148 74.528 99.7982 77.1761 101.108 81.5789C101.875 84.1632 103.472 87.0026 104.75 89.7464C103.728 91.1821 103.089 91.9798 103.089 91.9798C103.089 91.9798 103.089 91.9798 103.121 92.0117C102.29 93.0964 101.395 94.2769 100.405 95.4254C96.923 99.573 92.7701 104.327 92.195 105.699C91.5242 107.326 91.6839 108.506 92.9617 109.463C93.8882 110.165 95.5494 110.261 97.2425 110.165C100.373 109.942 102.577 109.176 103.664 108.698C105.357 108.092 107.337 107.166 109.19 105.794C112.608 103.274 114.685 99.6687 114.493 94.915C114.397 92.2988 113.535 89.6826 112.481 87.226C112.8 86.7793 113.088 86.3327 113.407 85.886C118.806 78.0056 122.991 69.3595 122.991 69.3595C122.991 69.3595 123.374 72.0075 124.684 76.4104C125.323 78.6437 126.633 81.0684 127.783 83.4293C122.703 87.545 119.573 92.3307 118.455 95.4574C116.442 101.264 118.007 103.88 120.978 104.486C122.32 104.773 124.237 104.135 125.642 103.529C127.431 102.955 129.54 101.966 131.552 100.498C134.971 97.9778 138.261 94.4683 138.069 89.7145C137.974 87.545 137.399 85.4074 136.6 83.3336C140.913 81.547 146.471 80.5579 153.563 81.3875C168.77 83.1741 171.772 92.6498 171.197 96.6378C170.622 100.626 167.428 102.795 166.374 103.465C165.319 104.135 164.968 104.359 165.064 104.837C165.192 105.539 165.703 105.507 166.597 105.38C167.843 105.156 174.584 102.157 174.871 94.8193C175.35 85.4393 166.406 75.198 150.592 75.2937ZM33.2867 114.791C28.2392 120.279 21.2111 122.353 18.1762 120.598C14.9177 118.716 16.1956 110.612 22.3931 104.805C26.1627 101.264 31.0185 97.9778 34.2451 95.9678C34.9798 95.5212 36.066 94.8831 37.3758 94.0855C37.5994 93.9578 37.7272 93.894 37.7272 93.894C37.9827 93.7345 38.2383 93.575 38.4939 93.4155C40.762 101.711 38.5897 109.017 33.2867 114.791ZM70.0245 89.8422C68.2675 94.1174 64.5937 105.061 62.3575 104.454C60.4407 103.944 59.2587 95.6488 61.9741 87.4493C63.3478 83.3336 66.2549 78.4203 67.948 76.5061C70.6954 73.4432 73.7303 72.4223 74.465 73.6666C75.3915 75.2937 71.1107 87.1622 70.0245 89.8422ZM100.341 104.327C99.6065 104.71 98.9037 104.965 98.5842 104.773C98.3606 104.646 98.9037 104.135 98.9037 104.135C98.9037 104.135 102.705 100.052 104.207 98.2011C105.069 97.1164 106.092 95.8402 107.178 94.4045C107.178 94.5321 107.178 94.6916 107.178 94.8193C107.178 99.7007 102.45 102.987 100.341 104.327ZM123.726 98.9988C123.183 98.6159 123.278 97.3397 125.099 93.3517C125.802 91.7883 127.463 89.1722 130.307 86.6517C130.626 87.6726 130.85 88.6617 130.818 89.5869C130.786 95.7445 126.377 98.0416 123.726 98.9988Z" fill="#CD6799"/>
</g>
<defs>
<clipPath id="clip5">
<rect width="175" height="131" fill="white"/>
</clipPath>
</defs>
</svg>
