<svg width="130" height="130" viewBox="0 0 130 130" fill="none" xmlns="http://www.w3.org/2000/svg">
<path d="M0 65V0H130V130H0" fill="#007ACC"/>
<path d="M28.5025 65.2275V70.525H45.4025V118.625H57.395V70.525H74.295V65.325C74.295 62.4 74.295 60.0275 74.165 59.9625C74.165 59.865 63.8625 59.8325 51.35 59.8325L28.6 59.93V65.26L28.5025 65.2275V65.2275ZM104.455 59.8C107.77 60.58 110.305 62.075 112.58 64.4475C113.783 65.7475 115.57 68.0225 115.7 68.6075C115.7 68.8025 110.078 72.605 106.665 74.7175C106.535 74.815 106.015 74.2625 105.495 73.4175C103.805 71.0125 102.083 69.9725 99.385 69.7775C95.485 69.5175 92.885 71.565 92.885 74.9775C92.885 76.0175 93.08 76.6025 93.47 77.4475C94.3475 79.235 95.9725 80.3075 101.01 82.5175C110.305 86.515 114.335 89.1475 116.772 92.9175C119.535 97.1425 120.153 103.773 118.3 108.745C116.22 114.173 111.15 117.845 103.903 119.048C101.628 119.438 96.4275 119.373 93.99 118.95C88.79 117.975 83.8175 115.375 80.7625 112.028C79.56 110.728 77.2525 107.25 77.3825 107.023L78.6175 106.243L83.4925 103.415L87.165 101.27L88.01 102.408C89.0825 104.098 91.4875 106.373 92.885 107.153C97.11 109.33 102.765 109.038 105.56 106.503C106.763 105.398 107.283 104.228 107.283 102.603C107.283 101.108 107.055 100.425 106.308 99.2875C105.268 97.8575 103.188 96.6875 97.3375 94.0875C90.61 91.2275 87.75 89.4075 85.085 86.6125C83.5575 84.9225 82.16 82.29 81.51 80.1125C81.0225 78.2275 80.86 73.6125 81.315 71.76C82.7125 65.26 87.62 60.71 94.64 59.41C96.915 58.955 102.278 59.15 104.52 59.735L104.455 59.8V59.8Z" fill="white"/>
</svg>
