<svg width="16" height="16" viewBox="0 0 16 16" fill="currentColor" xmlns="http://www.w3.org/2000/svg">
<path d="M12.6732 10.1087V5.33137C12.6698 4.26071 11.9552 2.66671 9.99984 2.66671V1.33337L7.33317 3.33337L9.99984 5.33337V4.00004C11.2192 4.00004 11.3338 5.02604 11.3398 5.33337V10.1087C10.3798 10.398 9.67317 11.28 9.67317 12.3334C9.67317 13.62 10.7198 14.6667 12.0065 14.6667C13.2932 14.6667 14.3398 13.62 14.3398 12.3334C14.3398 11.28 13.6332 10.398 12.6732 10.1087ZM12.0065 13.3334C11.4552 13.3334 11.0065 12.8847 11.0065 12.3334C11.0065 11.782 11.4552 11.3334 12.0065 11.3334C12.5578 11.3334 13.0065 11.782 13.0065 12.3334C13.0065 12.8847 12.5578 13.3334 12.0065 13.3334ZM6.33317 3.66671C6.33317 2.38004 5.2865 1.33337 3.99984 1.33337C2.71317 1.33337 1.6665 2.38004 1.6665 3.66671C1.6665 4.72004 2.37317 5.60204 3.33317 5.89137V10.1087C2.37317 10.398 1.6665 11.28 1.6665 12.3334C1.6665 13.62 2.71317 14.6667 3.99984 14.6667C5.2865 14.6667 6.33317 13.62 6.33317 12.3334C6.33317 11.28 5.6265 10.398 4.6665 10.1087V5.89137C5.6265 5.60204 6.33317 4.72004 6.33317 3.66671ZM2.99984 3.66671C2.99984 3.11537 3.4485 2.66671 3.99984 2.66671C4.55117 2.66671 4.99984 3.11537 4.99984 3.66671C4.99984 4.21804 4.55117 4.66671 3.99984 4.66671C3.4485 4.66671 2.99984 4.21804 2.99984 3.66671ZM4.99984 12.3334C4.99984 12.8847 4.55117 13.3334 3.99984 13.3334C3.4485 13.3334 2.99984 12.8847 2.99984 12.3334C2.99984 11.782 3.4485 11.3334 3.99984 11.3334C4.55117 11.3334 4.99984 11.782 4.99984 12.3334Z" fill="currentColor"/>
</svg>
