<svg width="130" height="130" viewBox="0 0 130 130" fill="none" xmlns="http://www.w3.org/2000/svg">
<path d="M130 0H0V130H130V0Z" fill="#F7DF1E"/>
<path d="M87.327 101.563C89.9455 105.839 93.3524 108.981 99.3778 108.981C104.44 108.981 107.673 106.451 107.673 102.956C107.673 98.767 104.351 97.2833 98.7793 94.8463L95.7254 93.536C86.9101 89.7805 81.0539 85.0757 81.0539 75.1297C81.0539 65.9678 88.0347 58.9932 98.9444 58.9932C106.711 58.9932 112.295 61.6963 116.319 68.7741L106.806 74.8821C104.712 71.1265 102.452 69.647 98.9444 69.647C95.3663 69.647 93.0986 71.9168 93.0986 74.8821C93.0986 78.5468 95.3684 80.0305 100.61 82.3003L103.664 83.6086C114.043 88.0595 119.903 92.5971 119.903 102.799C119.903 113.797 111.263 119.823 99.6605 119.823C88.3154 119.823 80.9859 114.417 77.3995 107.33L87.327 101.563ZM44.1732 102.622C46.0922 106.026 47.8379 108.905 52.0351 108.905C56.0486 108.905 58.5805 107.335 58.5805 101.229V59.6906H70.7963V101.394C70.7963 114.043 63.3801 119.8 52.5551 119.8C42.7741 119.8 37.1098 114.738 34.2292 108.642L44.1732 102.622Z" fill="black"/>
</svg>
