<svg
  width="44"
  height="38"
  viewBox="0 0 44 38"
  fill="none"
  xmlns="http://www.w3.org/2000/svg"
>
  <title>Source Code on Github</title>
  <path
    fill-rule="evenodd"
    clip-rule="evenodd"
    d="M16.1879 10.8314C14.8397 10.948 14.0279 11.373 13.178 12.407C12.8474 12.8093 12.3833 13.6626 12.3833 13.868C12.3833 13.9109 12.3688 13.946 12.3512 13.946C12.2447 13.946 12.2065 14.9616 12.2888 15.6006C12.6294 18.2412 14.2473 19.7331 17.3541 20.2714C17.5539 20.306 17.8121 20.3507 17.9277 20.3706C18.1431 20.4077 18.5389 20.4505 19.3808 20.5276C20.0091 20.5852 24.4231 20.5841 25.0781 20.5262C26.6073 20.391 27.7193 20.1834 28.3474 19.9157C28.3895 19.8979 28.5014 19.8514 28.5961 19.8126C29.1811 19.5728 29.8735 19.0819 30.2442 18.6441C30.4397 18.4133 30.8517 17.7836 30.8523 17.7147C30.8524 17.7006 30.8773 17.6419 30.9076 17.5842C31.3263 16.7866 31.6031 14.2482 31.3063 13.929C31.2878 13.9091 31.2727 13.8689 31.2727 13.8397C31.2727 13.7868 31.2234 13.664 31.0711 13.338C30.6729 12.4854 29.8097 11.5748 29.0549 11.2108C28.9603 11.1652 28.8548 11.1133 28.8205 11.0956C28.7864 11.0778 28.6917 11.0513 28.6103 11.0366C28.5288 11.022 28.4447 10.9965 28.4235 10.9798C28.1734 10.7848 26.6272 10.7628 24.6575 10.9262C23.2635 11.042 23.0543 11.0513 21.828 11.051C20.5821 11.0508 20.2901 11.038 18.941 10.9244C17.4859 10.8019 16.7978 10.7786 16.1879 10.8314ZM17.2239 13.2389C17.8723 13.5389 18.2631 14.5146 18.1058 15.4403C17.7258 17.6753 15.5006 17.2906 15.5145 14.9924C15.5222 13.7222 16.3759 12.8466 17.2239 13.2389ZM27.5447 13.2242C28.58 13.6651 28.8063 15.6818 27.9221 16.5859C27.3442 17.1768 26.5186 16.9913 26.1054 16.1779C25.3569 14.7043 26.3302 12.7068 27.5447 13.2242ZM16.0498 13.849C15.8545 13.9585 15.8092 14.3076 15.9713 14.4533C16.1827 14.6435 16.4487 14.5934 16.6008 14.3348C16.7836 14.0237 16.3772 13.6653 16.0498 13.849ZM26.5173 13.9322C26.2874 14.1606 26.4328 14.5161 26.7561 14.5161C26.9543 14.5161 27.0839 14.3785 27.0839 14.1678C27.0839 13.866 26.7315 13.7194 26.5173 13.9322ZM22.0942 17.1137C22.3342 17.2243 22.4322 17.5763 22.2883 17.8107C22.032 18.2285 21.3691 18.0554 21.3691 17.5706C21.3691 17.4309 21.4794 17.1424 21.5347 17.1374C21.5383 17.1372 21.6099 17.1124 21.6941 17.0825C21.8478 17.0277 21.92 17.0334 22.0942 17.1137ZM20.955 18.645C20.9935 18.6795 21.0249 18.7277 21.0249 18.7521C21.0249 18.8458 21.3163 19.1285 21.5008 19.2139C21.9263 19.4108 22.3952 19.25 22.6369 18.8244C22.84 18.4667 23.1408 18.5467 22.9752 18.9142C22.5552 19.8465 21.2148 19.8593 20.7429 18.9355C20.6114 18.678 20.7622 18.4715 20.955 18.645Z"
    fill="#F4CAB1"
  />
  <path
    fill-rule="evenodd"
    clip-rule="evenodd"
    d="M11.1594 0.783505C11.1592 0.822819 11.1341 0.902705 11.1034 0.961105C11.0728 1.01939 11.0366 1.12648 11.0229 1.19905C11.0092 1.2715 10.9832 1.33985 10.9652 1.35093C10.9471 1.36202 10.9211 1.45585 10.9072 1.5595C10.8934 1.66316 10.8688 1.74796 10.8525 1.74796C10.8363 1.74796 10.811 1.85059 10.7964 1.97596C10.7818 2.10133 10.7558 2.20396 10.7389 2.20396C10.7218 2.20396 10.6956 2.36648 10.6807 2.56499C10.6657 2.7635 10.6382 2.92602 10.6197 2.92602C10.574 2.92602 10.5766 4.65791 10.6225 4.74099C10.6426 4.77733 10.6699 4.93951 10.6831 5.10145C10.6964 5.26351 10.721 5.39596 10.7378 5.39596C10.7546 5.39596 10.7803 5.49002 10.7948 5.60499C10.8091 5.71996 10.8348 5.81402 10.8516 5.81402C10.9662 5.81402 10.9275 6.13196 10.7975 6.25733C10.7232 6.32899 10.6618 6.40819 10.6609 6.43333C10.66 6.45848 10.6083 6.52099 10.5462 6.57219C10.484 6.6235 10.4331 6.68625 10.4331 6.71151C10.4331 6.73688 10.4201 6.76339 10.4041 6.77036C10.3653 6.78728 10.1272 7.09105 10.1272 7.12362C10.1272 7.13779 10.0799 7.2211 10.0221 7.30876C9.84946 7.57059 9.83106 7.60328 9.63521 7.99905C9.53171 8.20796 9.41786 8.46453 9.38221 8.56899C9.34656 8.67356 9.3039 8.78522 9.28745 8.81722C9.27089 8.84933 9.24467 8.93482 9.22903 9.00728C9.21339 9.07973 9.18706 9.15608 9.17038 9.17699C9.15382 9.19791 9.12783 9.30053 9.11265 9.40499C9.09747 9.50956 9.07091 9.61288 9.05354 9.63471C9.03629 9.65653 9.0103 9.79333 8.99593 9.93871C8.98155 10.0841 8.95062 10.227 8.92716 10.2564C8.86805 10.3302 8.86839 13.2924 8.9275 13.3305C8.95027 13.3451 8.98109 13.5361 8.99593 13.7549C9.01076 13.9738 9.03687 14.1705 9.05377 14.192C9.07068 14.2134 9.09632 14.35 9.11058 14.4954C9.12496 14.6408 9.15152 14.7776 9.16946 14.7994C9.1874 14.8212 9.21431 14.9373 9.22937 15.0576C9.24432 15.1777 9.27181 15.2761 9.29033 15.2761C9.30896 15.2761 9.32425 15.3194 9.32425 15.3723C9.32425 15.4252 9.35001 15.5299 9.38152 15.6049C9.49031 15.8635 9.60612 15.846 7.77555 15.846C6.86072 15.846 6.11219 15.8605 6.11219 15.8782C6.11219 15.896 5.67818 15.9226 5.14757 15.9376C4.61696 15.9524 4.17386 15.9784 4.16294 15.995C4.15201 16.0117 3.89361 16.0378 3.58886 16.0529C3.28411 16.068 3.02593 16.0938 3.01524 16.1104C3.00454 16.1268 2.80663 16.1529 2.57525 16.1681C2.34387 16.1834 2.13744 16.209 2.1164 16.225C2.09535 16.241 1.92354 16.2661 1.7346 16.2808C1.54577 16.2955 1.37361 16.3213 1.35222 16.3382C1.33095 16.3552 1.18018 16.381 1.01734 16.3957C0.854501 16.4105 0.711441 16.4381 0.699596 16.4573C0.687636 16.4764 0.618751 16.4921 0.546416 16.4921C0.420606 16.4921 0.414856 16.4981 0.414856 16.6304V16.7685L0.710406 16.7419C0.872901 16.7273 1.01493 16.7011 1.02585 16.6837C1.03678 16.6664 1.19628 16.6398 1.38028 16.6246C1.56428 16.6094 1.71493 16.5841 1.71493 16.5681C1.71493 16.5522 1.8956 16.5269 2.1164 16.512C2.3372 16.497 2.51786 16.4708 2.51786 16.4539C2.51786 16.4369 2.74154 16.4107 3.01501 16.3956C3.28836 16.3806 3.51204 16.3553 3.51204 16.3393C3.51204 16.3233 3.80023 16.299 4.15259 16.2856C4.50483 16.272 4.82683 16.242 4.86812 16.219C4.91941 16.1905 5.68071 16.1712 7.26759 16.1581L9.59186 16.1392V16.2174C9.59186 16.2605 9.60497 16.3014 9.62095 16.3084C9.63694 16.3154 9.69467 16.434 9.74918 16.572L9.84831 16.8229L9.36634 16.8473C9.10127 16.8608 8.73487 16.8718 8.55214 16.872C8.36941 16.872 8.21071 16.8867 8.19955 16.9045C8.18851 16.9225 7.89135 16.9494 7.53922 16.9645C7.18709 16.9796 6.87257 17.0057 6.84025 17.0224C6.80782 17.039 6.56632 17.065 6.30343 17.0802C6.04054 17.0953 5.80824 17.1188 5.7872 17.1323C5.76615 17.1459 5.56835 17.1778 5.34744 17.2032C4.67825 17.28 4.22159 17.3458 4.18122 17.3713C4.16018 17.3845 4.00102 17.4077 3.82748 17.4227C3.65406 17.4377 3.51204 17.4628 3.51204 17.4786C3.51204 17.4942 3.38864 17.5186 3.23765 17.5325C3.08677 17.5465 2.94486 17.5723 2.9222 17.59C2.89966 17.6077 2.77167 17.634 2.63781 17.6485C2.50395 17.6629 2.36629 17.69 2.33191 17.7086C2.29752 17.7274 2.1747 17.7596 2.05901 17.7803C1.67227 17.8498 1.42858 17.9011 1.37074 17.9252C1.30599 17.9523 1.04172 18.0198 0.701551 18.0962C0.475346 18.147 0.472011 18.1497 0.460281 18.2889L0.448436 18.4301H0.603686C0.689131 18.4301 0.758936 18.4149 0.758936 18.3964C0.758936 18.378 0.853351 18.3512 0.968696 18.3368C1.08404 18.3225 1.18754 18.2961 1.1987 18.278C1.20985 18.2601 1.31358 18.2337 1.42927 18.2193C1.54485 18.205 1.64777 18.1797 1.65801 18.1634C1.66813 18.1469 1.77979 18.1217 1.90606 18.107C2.03222 18.0925 2.13549 18.0672 2.13549 18.0508C2.13549 18.0344 2.24738 18.009 2.384 17.9945C2.52074 17.98 2.63263 17.9542 2.63263 17.9376C2.63263 17.9208 2.76155 17.895 2.9191 17.8803C3.07676 17.8657 3.2143 17.8397 3.22477 17.8228C3.23535 17.8059 3.38174 17.7798 3.5501 17.7651C3.71846 17.7502 3.85623 17.7246 3.85623 17.7082C3.85623 17.6916 4.01102 17.6659 4.20031 17.651C4.3896 17.6362 4.54451 17.6107 4.54451 17.5946C4.54451 17.5784 4.72517 17.5529 4.94597 17.5379C5.16677 17.523 5.34744 17.4972 5.34744 17.4806C5.34744 17.4641 5.55398 17.4381 5.80629 17.423C6.05871 17.408 6.26514 17.3825 6.26514 17.3665C6.26514 17.3504 6.51894 17.3248 6.82921 17.3094C7.13937 17.2941 7.40191 17.268 7.41249 17.2512C7.42307 17.2345 7.78866 17.2084 8.22497 17.1931C8.66128 17.1778 9.01835 17.1507 9.01835 17.1328C9.01835 17.1147 9.23766 17.1004 9.50584 17.1008L9.99332 17.1014L10.1176 17.2904C10.1859 17.3942 10.2419 17.4965 10.2419 17.5177C10.2419 17.5388 10.2587 17.5561 10.2794 17.5561C10.3 17.5561 10.3277 17.5988 10.341 17.651C10.3541 17.7033 10.3808 17.746 10.4002 17.746C10.4196 17.746 10.4465 17.776 10.4601 17.8125C10.4737 17.8491 10.5247 17.9168 10.5736 17.9627C10.6225 18.0088 10.6625 18.0635 10.6625 18.0844C10.6625 18.1053 10.7228 18.1805 10.7964 18.2516C10.87 18.3226 10.9302 18.3936 10.9302 18.4092C10.9302 18.4653 11.8638 19.3421 11.9236 19.3421C11.9415 19.3421 11.962 19.3565 11.969 19.3741C11.9889 19.4243 12.7345 19.9121 12.7913 19.9121C12.8192 19.9121 12.8421 19.9283 12.8421 19.9481C12.8421 19.9926 13.8331 20.4821 13.9234 20.4821C13.9597 20.4821 13.9892 20.4978 13.9892 20.5171C13.9892 20.5363 14.042 20.5636 14.1065 20.5777C14.171 20.5917 14.2699 20.6272 14.3264 20.6564C14.3828 20.6857 14.4485 20.7097 14.4723 20.7099C14.4963 20.71 14.565 20.7356 14.6253 20.7668C14.6855 20.7981 14.7725 20.8237 14.8186 20.8238C14.8647 20.824 14.9124 20.8402 14.9246 20.8598C14.9369 20.8796 15.0242 20.9072 15.1185 20.9213C15.2129 20.9354 15.2993 20.9614 15.3105 20.9794C15.3216 20.9972 15.416 21.0232 15.5203 21.0369C15.6245 21.0506 15.7099 21.075 15.7099 21.0913C15.7099 21.1074 15.8131 21.1325 15.9394 21.147C16.0657 21.1617 16.1779 21.188 16.1888 21.2056C16.1998 21.2233 16.3288 21.2494 16.4755 21.2637C16.6223 21.2781 16.7423 21.3033 16.7423 21.3196C16.7423 21.336 16.8888 21.3614 17.0679 21.3762C17.2469 21.391 17.4019 21.4165 17.4121 21.433C17.4222 21.4493 17.609 21.4748 17.8271 21.4897C18.2458 21.518 18.3834 21.5558 18.2362 21.6022C18.0769 21.6525 17.4306 22.3684 17.4306 22.4946C17.4306 22.5163 17.4137 22.5341 17.3931 22.5341C17.3724 22.5341 17.3448 22.5769 17.3316 22.6291C17.3184 22.6813 17.2936 22.7241 17.2765 22.7241C17.2595 22.7241 17.2342 22.7754 17.2203 22.8381C17.2065 22.9008 17.1806 22.9521 17.1629 22.9521C17.1453 22.9521 17.1188 23.0077 17.1042 23.0756C17.0896 23.1435 17.0644 23.2162 17.0482 23.2371C17.032 23.258 17.006 23.3344 16.9904 23.4068C16.9749 23.4793 16.9481 23.5649 16.9309 23.5969C16.9139 23.6289 16.8894 23.704 16.8768 23.7636C16.8632 23.8269 16.8225 23.8802 16.7788 23.8915C16.7377 23.9022 16.704 23.9261 16.704 23.9445C16.704 23.963 16.674 23.9787 16.6372 23.9794C16.6004 23.9801 16.5014 24.0137 16.4173 24.0541C16.3332 24.0945 16.2353 24.1281 16.1996 24.1289C16.1641 24.1296 16.1256 24.1452 16.1141 24.1637C16.1026 24.1822 16.0113 24.2094 15.9111 24.2243C15.8109 24.239 15.7107 24.2662 15.6882 24.2845C15.5714 24.38 13.9757 24.381 13.8595 24.2857C13.8362 24.2666 13.7526 24.2389 13.6738 24.2243C13.5949 24.2097 13.5304 24.1838 13.5304 24.1669C13.5304 24.15 13.4756 24.1242 13.4088 24.1097C13.2855 24.0827 12.9101 23.8731 12.8867 23.8181C12.8797 23.8016 12.8504 23.7881 12.8216 23.7881C12.7929 23.7881 12.7556 23.7664 12.7388 23.7397C12.722 23.7131 12.6637 23.6632 12.6093 23.6289C12.3746 23.4809 12.0248 23.0737 11.6966 22.5665C11.2985 21.9514 11.0248 21.6313 10.6509 21.3436C10.5918 21.2982 10.5075 21.2312 10.4633 21.1946C10.4193 21.158 10.3618 21.1281 10.3358 21.1281C10.3097 21.1281 10.2784 21.1025 10.2663 21.071C10.2543 21.0397 10.2179 21.0141 10.1857 21.0141C10.1535 21.0141 10.1272 20.9984 10.1272 20.9792C10.1272 20.9598 10.0755 20.9329 10.0125 20.919C9.94939 20.9053 9.89776 20.8785 9.89776 20.8595C9.89776 20.8405 9.82899 20.814 9.74481 20.8006C9.66074 20.7873 9.59186 20.762 9.59186 20.7445C9.59186 20.727 9.50549 20.7013 9.39981 20.6874C9.29424 20.6734 9.19856 20.6473 9.18729 20.6291C9.16038 20.5858 8.21531 20.586 8.21531 20.6293C8.21531 20.6476 8.16459 20.6726 8.10261 20.685C7.78728 20.7476 7.72506 21.0827 7.97852 21.3529C8.05868 21.4382 8.1447 21.5081 8.16977 21.5081C8.19484 21.5081 8.21531 21.5252 8.21531 21.5461C8.21531 21.567 8.24889 21.5841 8.28983 21.5841C8.33088 21.5841 8.37826 21.6054 8.39505 21.6316C8.41184 21.6577 8.47728 21.7059 8.5403 21.7387C8.8278 21.8881 8.99961 21.9868 9.04791 22.0306C9.07666 22.0568 9.11426 22.0781 9.13151 22.0781C9.18809 22.0781 9.58277 22.4406 9.79828 22.6906C9.96078 22.8792 10.3566 23.464 10.3566 23.5156C10.3566 23.5401 10.3735 23.5601 10.3941 23.5601C10.4148 23.5601 10.4424 23.6028 10.4556 23.6552C10.4688 23.7074 10.4931 23.7501 10.5096 23.7501C10.526 23.7501 10.5507 23.7944 10.5643 23.8484C10.578 23.9024 10.61 23.9714 10.6354 24.0017C10.6608 24.032 10.6988 24.0778 10.7199 24.1036C10.7409 24.1293 10.8011 24.2356 10.8537 24.3397C10.9063 24.444 10.9708 24.5428 10.9972 24.5595C11.0234 24.5762 11.0449 24.6075 11.0449 24.6289C11.0449 24.6504 11.0965 24.7193 11.1597 24.782C11.2227 24.8446 11.2743 24.909 11.2743 24.925C11.2743 24.9681 11.7988 25.4897 11.9175 25.5645C11.9738 25.6002 12.0338 25.651 12.0506 25.6777C12.0673 25.7043 12.1061 25.7261 12.1366 25.7261C12.1671 25.7261 12.192 25.742 12.192 25.7616C12.192 25.7811 12.23 25.809 12.2763 25.8236C12.3226 25.8382 12.3822 25.8692 12.4088 25.8926C12.5365 26.0051 12.575 26.0289 12.6667 26.0517C12.7211 26.0652 12.7656 26.0901 12.7656 26.1069C12.7656 26.1237 12.8344 26.149 12.9186 26.1632C13.0026 26.1772 13.0715 26.2034 13.0715 26.2211C13.0715 26.2389 13.1489 26.265 13.2436 26.2792C13.3382 26.2932 13.4156 26.3179 13.4156 26.334C13.4156 26.3501 13.5146 26.3755 13.6355 26.3904C13.7565 26.4053 13.8795 26.4372 13.9091 26.4613C13.9834 26.522 16.058 26.523 16.1342 26.4625C16.1638 26.439 16.3126 26.4081 16.4651 26.3937L16.7423 26.3675V27.7926C16.7423 28.7017 16.7561 29.2261 16.7805 29.2411C16.8304 29.2717 16.8304 30.3821 16.7806 30.6872C16.6838 31.2801 16.2553 31.7784 15.6204 32.0363C14.9317 32.3161 15.0521 32.7941 15.8112 32.7941C16.9615 32.7941 17.9833 32.3782 18.4164 31.7337C18.7451 31.2445 18.804 30.9491 18.8059 29.7849C18.8067 29.303 18.822 28.9896 18.8454 28.9752C18.8696 28.9603 18.885 28.4547 18.8872 27.5954C18.8923 25.6782 18.9281 25.3598 19.2046 24.7772C19.2799 24.6185 19.4109 24.4498 19.4368 24.4785C19.4779 24.524 19.4712 32.6022 19.4299 32.7396C19.3364 33.0512 19.1837 33.2569 18.9263 33.4184C18.706 33.5566 18.6027 33.7211 18.5995 33.939C18.5885 34.6906 20.3631 34.2568 21.1699 33.3106C21.5875 32.8211 21.616 32.6525 21.6289 30.5978C21.6386 29.0676 21.6486 28.7972 21.6958 28.7792C21.7437 28.761 21.7515 28.4274 21.7515 26.3955C21.7515 23.8462 21.7472 23.9021 21.9426 23.9021C22.1381 23.9021 22.1339 23.8462 22.1339 26.3955C22.1339 28.4283 22.1416 28.761 22.1895 28.7793C22.2369 28.7973 22.2471 29.0752 22.2583 30.6548C22.2731 32.749 22.2659 32.7005 22.6413 33.2262C23.1846 33.9873 24.7382 34.5725 25.1666 34.1777C25.3796 33.9814 25.3205 33.6482 25.0398 33.4636C24.8466 33.3365 24.7099 33.1873 24.6358 33.0226C24.6029 32.9492 24.5598 32.8549 24.5401 32.8132C24.5204 32.7714 24.4873 32.646 24.4666 32.5347C24.4459 32.4234 24.4187 32.3157 24.4062 32.2955C24.3671 32.2326 24.4359 24.5481 24.4756 24.5481C24.4955 24.5481 24.5207 24.5824 24.5317 24.6241C24.5428 24.6659 24.5669 24.7001 24.5856 24.7001C24.6041 24.7001 24.6193 24.7245 24.6193 24.7544C24.6193 24.7843 24.6411 24.8313 24.6677 24.8589C24.7302 24.9237 24.8882 25.412 24.8875 25.538C24.8872 25.5913 24.9073 25.6552 24.9323 25.68C24.9647 25.7122 24.9863 26.1753 25.0084 27.3121C25.081 31.0522 25.0852 31.0995 25.3955 31.6256C25.8073 32.3241 26.8691 32.7946 28.032 32.794C28.7767 32.7937 28.8701 32.338 28.1945 32.0009C27.6725 31.7404 27.2158 31.134 27.1052 30.5547C27.052 30.2757 27.0539 29.1842 27.1076 29.1842C27.167 29.1842 27.1406 24.1244 27.0808 24.0505C27.0571 24.0211 27.0257 23.899 27.0113 23.7792C26.9966 23.6594 26.9687 23.5515 26.9491 23.5395C26.9296 23.5275 26.9129 23.4802 26.9122 23.4344C26.9115 23.3885 26.8777 23.2827 26.8371 23.1992C26.7964 23.1155 26.7626 23.0257 26.7619 22.9996C26.7612 22.9734 26.7448 22.9521 26.7254 22.9521C26.706 22.9521 26.6789 22.9008 26.665 22.8381C26.6512 22.7754 26.6239 22.7241 26.6046 22.7241C26.5853 22.7241 26.5694 22.7014 26.5694 22.6738C26.5694 22.5318 25.8678 21.6981 25.7484 21.6981C25.6883 21.6981 25.6486 21.6117 25.6839 21.5577C25.6977 21.5364 25.9067 21.5069 26.1482 21.492C26.3897 21.4771 26.5961 21.451 26.607 21.434C26.6178 21.4171 26.7731 21.3907 26.9518 21.3754C27.1305 21.3602 27.294 21.3344 27.3151 21.3181C27.3361 21.3019 27.4652 21.2762 27.6019 21.2611C27.7385 21.246 27.8675 21.2206 27.8886 21.2046C27.9096 21.1888 28.0129 21.1634 28.118 21.1483C28.2232 21.1333 28.3264 21.1076 28.3474 21.0913C28.3685 21.075 28.467 21.05 28.5664 21.0357C28.6659 21.0214 28.756 20.9956 28.7667 20.9782C28.7774 20.961 28.8636 20.9354 28.958 20.9213C29.0523 20.9072 29.1386 20.8811 29.1498 20.8632C29.1609 20.8453 29.2387 20.8192 29.3225 20.8051C29.4065 20.791 29.4848 20.7638 29.4966 20.7448C29.5085 20.7257 29.5473 20.71 29.5829 20.7099C29.6184 20.7097 29.6937 20.6857 29.7501 20.6564C29.8066 20.6272 29.9055 20.5917 29.97 20.5777C30.0345 20.5636 30.0873 20.5382 30.0873 20.5213C30.0873 20.5044 30.1475 20.4793 30.2211 20.4656C30.2947 20.4518 30.355 20.4257 30.355 20.4074C30.355 20.3891 30.4066 20.3628 30.4696 20.3491C30.5328 20.3353 30.5844 20.3097 30.5844 20.2921C30.5844 20.2745 30.636 20.2489 30.6991 20.235C30.7622 20.2213 30.8138 20.1944 30.8138 20.175C30.8138 20.1558 30.833 20.1401 30.8566 20.1401C30.9096 20.1401 31.3635 19.8705 31.381 19.8285C31.388 19.8118 31.4097 19.7981 31.4292 19.7981C31.5557 19.7981 32.3461 19.1052 32.7448 18.6448C32.8499 18.5234 32.9645 18.3929 32.9992 18.3548C33.0339 18.3168 33.0732 18.2513 33.0866 18.2093C33.1 18.1674 33.1361 18.1235 33.1669 18.1117C33.1977 18.1001 33.2227 18.0643 33.2227 18.0323C33.2227 18.0003 33.2382 17.974 33.2569 17.974C33.2756 17.974 33.3017 17.9313 33.315 17.879C33.3282 17.8268 33.3544 17.7841 33.3734 17.7841C33.3924 17.7841 33.4193 17.7328 33.4331 17.67C33.447 17.6074 33.4741 17.5561 33.4935 17.5561C33.5129 17.5561 33.5286 17.5305 33.5286 17.499C33.5286 17.4677 33.5445 17.442 33.5638 17.442C33.5833 17.442 33.6104 17.3908 33.6243 17.3281C33.6381 17.2653 33.6653 17.214 33.6847 17.214C33.704 17.214 33.7199 17.1884 33.7199 17.1571C33.7199 17.109 33.8091 17.1001 34.2934 17.1001C34.609 17.1001 34.867 17.1147 34.867 17.1328C34.867 17.1507 35.224 17.1778 35.6603 17.1931C36.0966 17.2084 36.4623 17.2345 36.4729 17.2512C36.4835 17.268 36.7459 17.2941 37.0562 17.3094C37.3663 17.3248 37.6201 17.3504 37.6201 17.3665C37.6201 17.3825 37.8267 17.408 38.079 17.423C38.3314 17.4381 38.5378 17.4641 38.5378 17.4806C38.5378 17.4972 38.7185 17.523 38.9393 17.5379C39.1602 17.5529 39.3409 17.5784 39.3409 17.5946C39.3409 17.6107 39.4956 17.6362 39.6849 17.651C39.8742 17.6659 40.0291 17.6916 40.0291 17.7082C40.0291 17.7246 40.1669 17.7502 40.3353 17.7651C40.5036 17.7798 40.6499 17.8059 40.6605 17.8228C40.6711 17.8397 40.8086 17.8657 40.9662 17.8803C41.1238 17.895 41.2527 17.9208 41.2527 17.9376C41.2527 17.9542 41.3645 17.98 41.5012 17.9945C41.638 18.009 41.7498 18.0344 41.7498 18.0508C41.7498 18.0672 41.853 18.0925 41.9793 18.107C42.1056 18.1217 42.2171 18.1469 42.2274 18.1634C42.2375 18.1797 42.3405 18.205 42.4561 18.2193C42.5717 18.2337 42.6754 18.2601 42.6867 18.278C42.6978 18.2961 42.8013 18.3225 42.9167 18.3368C43.032 18.3512 43.1263 18.378 43.1263 18.3964C43.1263 18.4149 43.1962 18.4301 43.2816 18.4301H43.4369L43.425 18.2889C43.4134 18.1497 43.41 18.147 43.1837 18.0962C42.8436 18.0198 42.5793 17.9523 42.5145 17.9252C42.4567 17.9011 42.2131 17.8498 41.8262 17.7803C41.7107 17.7596 41.5878 17.7274 41.5533 17.7086C41.519 17.69 41.3813 17.6629 41.2474 17.6485C41.1137 17.634 40.9857 17.6077 40.963 17.59C40.9405 17.5723 40.7985 17.5465 40.6476 17.5325C40.4967 17.5186 40.3732 17.4942 40.3732 17.4786C40.3732 17.4628 40.2313 17.4377 40.0578 17.4227C39.8842 17.4077 39.7251 17.3845 39.704 17.3713C39.6638 17.3458 39.2071 17.28 38.5378 17.2032C38.317 17.1778 38.119 17.1458 38.0978 17.132C38.0765 17.1182 37.8357 17.0947 37.5625 17.0797C37.2893 17.0648 37.0484 17.0392 37.0274 17.0228C37.0064 17.0065 36.7139 16.9819 36.3774 16.9681C36.0409 16.9542 35.7311 16.9281 35.6891 16.9098C35.6471 16.8914 35.2212 16.865 34.7427 16.851C34.2643 16.8371 33.8728 16.8153 33.8728 16.8026C33.8728 16.7793 33.9702 16.498 34.0264 16.359C34.0433 16.3172 34.0676 16.2507 34.0805 16.2112C34.1076 16.1284 38.9371 16.1322 38.9908 16.215C39.0049 16.2369 39.3067 16.2657 39.6848 16.2813C40.0528 16.2965 40.3625 16.3224 40.3731 16.3387C40.3837 16.355 40.6117 16.3809 40.8799 16.3961C41.1481 16.4113 41.3674 16.4374 41.3674 16.4542C41.3674 16.471 41.5481 16.497 41.769 16.512C41.9898 16.5269 42.1704 16.552 42.1704 16.5677C42.1704 16.5834 42.3123 16.6085 42.4859 16.6235C42.6594 16.6385 42.819 16.6653 42.8407 16.683C42.8623 16.7009 43.0128 16.7274 43.1752 16.7419L43.4705 16.7685V16.6304C43.4705 16.4981 43.4648 16.4921 43.3389 16.4921C43.2666 16.4921 43.1976 16.4764 43.1858 16.4573C43.1738 16.4381 43.0309 16.4105 42.868 16.3957C42.7052 16.381 42.5544 16.3552 42.533 16.3382C42.5116 16.3213 42.3396 16.2955 42.1507 16.2808C41.9617 16.2661 41.7899 16.241 41.769 16.225C41.7479 16.209 41.5414 16.1834 41.3101 16.1681C41.0787 16.1529 40.8807 16.1268 40.87 16.1104C40.8593 16.0938 40.6013 16.0682 40.2965 16.0533C39.9916 16.0385 39.7244 16.0123 39.7024 15.9952C39.6806 15.9779 39.2375 15.9518 38.7178 15.9371C38.1982 15.9224 37.7731 15.8958 37.7731 15.8781C37.7731 15.8312 34.3418 15.837 34.3126 15.8841C34.2996 15.905 34.263 15.922 34.2315 15.922C34.1706 15.922 34.1908 15.6061 34.2571 15.5227C34.2738 15.5016 34.2988 15.3733 34.3124 15.2377C34.3261 15.102 34.353 14.9569 34.3721 14.915C34.4048 14.8436 34.4427 14.5438 34.5207 13.7371C34.539 13.549 34.5556 13.1353 34.5575 12.8178C34.5596 12.4779 34.5769 12.2308 34.5993 12.217C34.646 12.1883 34.6516 11.1851 34.6053 11.1566C34.5876 11.1458 34.5626 10.8954 34.5498 10.6002C34.5372 10.305 34.5107 10.0436 34.4912 10.0193C34.4716 9.99493 34.4436 9.85973 34.4289 9.71893C34.4141 9.57802 34.3879 9.45402 34.3704 9.44339C34.3531 9.43265 34.327 9.33848 34.3126 9.23402C34.2981 9.12956 34.2707 9.03448 34.2516 9.02282C34.2326 9.01116 34.2168 8.96408 34.2167 8.91825C34.2166 8.87253 34.1908 8.78602 34.1594 8.72613C34.1279 8.66636 34.1023 8.59196 34.1023 8.56099C34.1023 8.53002 34.0786 8.45939 34.0496 8.40385C33.9405 8.19448 33.8345 7.95116 33.8345 7.90933C33.8345 7.88556 33.8192 7.86602 33.8005 7.86602C33.7818 7.86602 33.7546 7.81916 33.7401 7.7619C33.7256 7.70465 33.7023 7.6491 33.6881 7.63836C33.674 7.62773 33.6281 7.55059 33.5861 7.46705C33.5442 7.38339 33.4882 7.29242 33.4618 7.26476C33.4355 7.23722 33.414 7.19196 33.414 7.1643C33.414 7.13676 33.3881 7.1043 33.3566 7.0923C33.3251 7.08019 33.2992 7.04419 33.2992 7.01219C33.2992 6.98019 33.2824 6.95402 33.2617 6.95402C33.2411 6.95402 33.2138 6.91253 33.2009 6.86179C33.1881 6.81105 33.1534 6.76031 33.1237 6.74899C33.0941 6.73768 33.0698 6.70945 33.0698 6.68625C33.0698 6.66316 33.0182 6.59288 32.9551 6.53013C32.892 6.4675 32.8404 6.40133 32.8404 6.38328C32.8404 6.36522 32.7672 6.27516 32.6779 6.18316C32.2796 5.77311 32.1699 5.51139 32.3476 5.3947C32.3645 5.38362 32.3901 5.2339 32.4046 5.06225C32.419 4.89048 32.4456 4.75002 32.4635 4.75002C32.5066 4.75002 32.5062 2.97459 32.4631 2.94808C32.4448 2.93688 32.4176 2.77356 32.4028 2.58533C32.3881 2.39699 32.3616 2.23425 32.3443 2.2235C32.3269 2.21288 32.3007 2.10145 32.286 1.97608C32.2713 1.85059 32.2458 1.74796 32.2293 1.74796C32.2127 1.74796 32.1874 1.6539 32.1729 1.53893C32.1584 1.42408 32.1325 1.33002 32.1154 1.33002C32.0983 1.33002 32.073 1.27082 32.0594 1.19859C32.0457 1.12636 32.0095 1.01939 31.9789 0.961105C31.9482 0.902705 31.923 0.822934 31.9229 0.783848C31.9227 0.699505 30.4915 0.701676 30.4387 0.786134C30.4242 0.809334 30.3134 0.840534 30.1925 0.855505C30.0715 0.870476 29.9726 0.895962 29.9726 0.912076C29.9726 0.928191 29.8951 0.952876 29.8005 0.966934C29.7058 0.981105 29.6284 1.00865 29.6284 1.02831C29.6284 1.04796 29.5931 1.06396 29.5499 1.06396C29.4797 1.06396 29.2111 1.16499 29.0537 1.25048C29.0213 1.26796 28.9397 1.29436 28.872 1.3091C28.8043 1.32396 28.749 1.35036 28.749 1.36796C28.749 1.38556 28.6974 1.41116 28.6342 1.42499C28.5711 1.4387 28.5196 1.46442 28.5196 1.48202C28.5196 1.49951 28.468 1.52522 28.4048 1.53893C28.3417 1.55276 28.2902 1.57836 28.2902 1.59596C28.2902 1.61356 28.2385 1.63916 28.1754 1.65299C28.1123 1.66671 28.0607 1.69185 28.0607 1.70888C28.0607 1.72579 28.0136 1.75151 27.956 1.76591C27.8982 1.78019 27.8424 1.80351 27.8317 1.81745C27.8029 1.85493 27.5932 1.97733 27.5158 2.00179C27.479 2.01333 27.4489 2.0379 27.4489 2.05642C27.4489 2.07482 27.4243 2.09002 27.3943 2.09002C27.3642 2.09002 27.3169 2.11151 27.2891 2.13791C27.2614 2.16431 27.1956 2.20693 27.143 2.23265C27.0247 2.29048 26.9007 2.36728 26.8753 2.39836C26.8649 2.41116 26.8175 2.43379 26.7702 2.44842C26.7228 2.46305 26.6842 2.49105 26.6842 2.51059C26.6842 2.53002 26.6577 2.54602 26.6255 2.54602C26.5933 2.54602 26.5571 2.57162 26.545 2.60293C26.5203 2.66682 26.2072 2.68522 26.1698 2.62499C26.1578 2.60568 26.0361 2.57802 25.8993 2.5635C25.7626 2.54888 25.6419 2.52305 25.6314 2.50602C25.6208 2.48899 25.4747 2.46316 25.307 2.44865C25.1391 2.43402 25.0016 2.40911 25.0016 2.39322C25.0016 2.37722 24.8253 2.35185 24.6097 2.33688C24.3942 2.32191 24.199 2.29448 24.176 2.27608C24.153 2.25768 23.8039 2.23116 23.4003 2.21722C22.9965 2.20328 22.6572 2.17745 22.6463 2.15996C22.6203 2.11813 21.112 2.11825 21.086 2.15996C21.0751 2.17756 20.7349 2.20385 20.33 2.21825C19.9252 2.23276 19.5847 2.25871 19.5734 2.27608C19.562 2.29345 19.3721 2.32019 19.1513 2.33539C18.9304 2.35059 18.7326 2.37653 18.7116 2.39299C18.6905 2.40945 18.5401 2.43493 18.3773 2.44968C18.2144 2.46442 18.0726 2.49002 18.0623 2.50671C18.0519 2.52339 17.9315 2.54888 17.7948 2.5635C17.6581 2.57802 17.5373 2.60396 17.5266 2.62122C17.5159 2.63848 17.4039 2.66442 17.2777 2.67893C17.1514 2.69356 17.0385 2.72088 17.0268 2.73973C16.9979 2.78625 16.7423 2.7835 16.7423 2.73665C16.7423 2.71619 16.7006 2.68899 16.6495 2.6763C16.5985 2.6635 16.5474 2.62899 16.536 2.5995C16.5246 2.57013 16.489 2.54602 16.4568 2.54602C16.4246 2.54602 16.3981 2.52888 16.3981 2.50796C16.3981 2.48705 16.3736 2.47002 16.3435 2.47002C16.3135 2.47002 16.2654 2.44865 16.2368 2.42248C16.1704 2.36202 16.0611 2.29219 15.9393 2.23265C15.8867 2.20693 15.8209 2.16431 15.7932 2.13791C15.7654 2.11151 15.7181 2.09002 15.688 2.09002C15.658 2.09002 15.6334 2.07482 15.6334 2.05642C15.6334 2.0379 15.6034 2.01333 15.5666 2.00179C15.4891 1.97733 15.2794 1.85493 15.2507 1.81745C15.24 1.80351 15.184 1.78019 15.1263 1.76591C15.0687 1.75151 15.0216 1.72579 15.0216 1.70888C15.0216 1.69185 14.9699 1.66671 14.9069 1.65299C14.8438 1.63916 14.7922 1.61356 14.7922 1.59596C14.7922 1.57836 14.7405 1.55276 14.6775 1.53893C14.6144 1.52522 14.5627 1.49951 14.5627 1.48202C14.5627 1.46442 14.5111 1.4387 14.4481 1.42499C14.3849 1.41116 14.3333 1.38556 14.3333 1.36796C14.3333 1.35036 14.278 1.32396 14.2104 1.3091C14.1426 1.29436 14.061 1.26796 14.0287 1.25048C13.8712 1.16499 13.6026 1.06396 13.5324 1.06396C13.4892 1.06396 13.4539 1.04796 13.4539 1.02831C13.4539 1.00865 13.3764 0.981105 13.2819 0.966934C13.1872 0.952876 13.1097 0.928191 13.1097 0.912076C13.1097 0.895962 13.0108 0.870476 12.8898 0.855505C12.769 0.840534 12.6586 0.809905 12.6445 0.787505C12.5922 0.703962 11.1597 0.700076 11.1594 0.783505ZM18.7116 10.4888C20.8788 10.6517 23.1438 10.6654 24.3707 10.5232C25.3871 10.4052 27.502 10.4082 28.0034 10.5283C29.191 10.8126 29.8161 11.2217 30.5646 12.2045C30.8215 12.5418 31.2727 13.3568 31.2727 13.4834C31.2727 13.5065 31.2979 13.5992 31.3287 13.6894C31.5716 14.4003 31.4754 16.1041 31.135 17.123C30.854 17.9642 30.2532 18.8428 29.7034 19.2168C29.6516 19.2518 29.6007 19.2908 29.5902 19.3032C29.4964 19.4137 28.4842 19.9501 28.3695 19.9501C28.3463 19.9501 28.2974 19.9657 28.261 19.9848C27.9252 20.1598 26.8589 20.3883 25.9385 20.4821C25.7282 20.5036 25.4185 20.5395 25.2503 20.562C24.3554 20.6813 20.0003 20.6409 18.6542 20.5006C17.9478 20.4272 16.9668 20.2736 16.8379 20.2163C16.7958 20.1977 16.684 20.1709 16.5894 20.157C16.4947 20.1429 16.4001 20.1186 16.379 20.1027C16.358 20.0869 16.2742 20.062 16.1927 20.0474C16.1113 20.0329 16.0167 20.0065 15.9824 19.9888C15.9483 19.9712 15.7654 19.9012 15.5761 19.8336C13.6282 19.1368 12.4957 17.709 12.2473 15.6371C12.1672 14.9682 12.1959 14.0226 12.304 13.775C12.3223 13.7332 12.3751 13.5818 12.4213 13.4385C12.4981 13.2001 12.7907 12.5977 12.8818 12.4901C12.9028 12.4653 13.029 12.2997 13.1621 12.122C14.2642 10.6522 15.6115 10.2556 18.7116 10.4888ZM9.86912 21.1939C10.0062 21.3168 9.92915 21.5081 9.74239 21.5081C9.63567 21.5081 9.43891 21.3459 9.43891 21.258C9.43891 21.104 9.72158 21.0619 9.86912 21.1939ZM10.5116 21.6483C10.7074 21.7633 10.7547 22.0438 10.5873 22.0966C10.4011 22.1554 10.1655 21.9765 10.1655 21.7765C10.1655 21.5851 10.3116 21.5309 10.5116 21.6483ZM11.2379 22.4308C11.4984 22.6348 11.4875 22.9996 11.2208 22.9996C10.9959 22.9996 10.7914 22.6813 10.885 22.477C10.9337 22.371 11.1288 22.3454 11.2379 22.4308ZM11.9352 23.3459C12.2695 23.4865 12.3384 23.9785 12.0236 23.978C11.7171 23.9774 11.4813 23.5789 11.674 23.3874C11.784 23.2781 11.7769 23.2793 11.9352 23.3459ZM12.9422 24.2298C13.1935 24.3483 13.2782 24.5433 13.1413 24.6882C12.9062 24.9369 12.34 24.5468 12.5469 24.2788C12.6395 24.1589 12.7602 24.144 12.9422 24.2298ZM16.6437 24.3052C16.7082 24.3298 16.7185 24.4372 16.6792 24.6736C16.6562 24.8118 16.6494 24.8176 16.521 24.8066C16.2261 24.7813 16.18 24.4752 16.451 24.3422C16.5929 24.2728 16.5701 24.2771 16.6437 24.3052ZM14.2137 24.6281C14.425 24.7013 14.4835 24.9474 14.3156 25.0568C14.1613 25.1572 13.9402 25.1362 13.802 25.0078C13.5217 24.7477 13.8049 24.4865 14.2137 24.6281ZM15.6474 24.7028C15.9093 24.9075 15.5838 25.2336 15.2326 25.1184C14.9847 25.037 14.9238 24.7824 15.1246 24.6664C15.2465 24.5958 15.5364 24.6162 15.6474 24.7028Z"
    fill="#231B1B"
  />
  <path
    fill-rule="evenodd"
    clip-rule="evenodd"
    d="M9.49674 21.2033C9.45948 21.2633 9.5501 21.3948 9.65659 21.435C9.85589 21.5102 9.97986 21.3671 9.83772 21.2259C9.77148 21.1601 9.53343 21.1444 9.49674 21.2033ZM8.24129 21.647C8.2276 21.6606 8.20529 21.7547 8.19184 21.8559C8.17827 21.9573 8.15331 22.0401 8.13629 22.0401C8.11916 22.0401 8.0934 22.1214 8.07902 22.2207C8.06453 22.3199 8.03923 22.4183 8.02267 22.4391C8.00623 22.46 7.98127 22.5455 7.96724 22.6292C7.95333 22.7127 7.92343 22.8292 7.901 22.8878C7.87122 22.9654 7.87202 23.0062 7.90388 23.0379C7.92791 23.0619 7.94815 23.1164 7.94896 23.1592C7.94965 23.2021 7.98415 23.2777 8.02566 23.3272C8.17298 23.503 8.67415 23.4268 8.67415 23.2287C8.67415 23.202 8.6914 23.1801 8.71244 23.1801C8.7336 23.1801 8.75062 23.0789 8.75062 22.9521C8.75062 22.8268 8.73498 22.7241 8.71601 22.7241C8.69692 22.7241 8.66955 22.6387 8.65506 22.5341C8.64057 22.4296 8.61504 22.3525 8.59848 22.3627C8.5818 22.3729 8.55639 22.2877 8.54201 22.1733C8.52764 22.059 8.5013 21.9565 8.48359 21.9455C8.46588 21.9347 8.43978 21.8574 8.42552 21.774C8.40102 21.6296 8.31696 21.5718 8.24129 21.647ZM10.2486 21.6687C10.0926 21.8238 10.3891 22.1449 10.5898 22.0382C10.6862 21.9869 10.6814 21.8917 10.5762 21.7686C10.4777 21.6532 10.3144 21.6033 10.2486 21.6687ZM10.9378 22.4657C10.8115 22.5912 10.9852 22.9253 11.187 22.9449C11.3336 22.9591 11.3999 22.8635 11.3646 22.6881C11.3235 22.484 11.0584 22.3459 10.9378 22.4657ZM11.7045 23.3953C11.6779 23.406 11.6567 23.479 11.6567 23.5595C11.6567 23.824 12.0476 24.0614 12.155 23.862C12.2811 23.6277 11.9584 23.2935 11.7045 23.3953ZM12.574 24.3209C12.4743 24.506 12.7994 24.7942 13.0209 24.7173C13.1853 24.6603 13.1909 24.4768 13.0323 24.3443C12.8796 24.2165 12.6369 24.2041 12.574 24.3209ZM16.4066 24.4173C16.2976 24.4933 16.2911 24.6813 16.3957 24.7368C16.5592 24.8238 16.6125 24.7887 16.653 24.5672L16.691 24.3582H16.5913C16.5366 24.3582 16.4534 24.3848 16.4066 24.4173ZM13.8065 24.6833C13.6892 24.7651 13.7002 24.8656 13.8391 24.9819C14.0394 25.1492 14.3716 25.0805 14.3716 24.8716C14.3716 24.6752 13.9974 24.5505 13.8065 24.6833ZM15.2773 24.6656C14.9319 24.7597 15.0044 25.0801 15.3711 25.0801C15.5456 25.0801 15.7098 24.9816 15.7098 24.8769C15.7098 24.7368 15.4613 24.6155 15.2773 24.6656ZM21.7225 28.8102C21.6861 28.8464 21.675 29.2525 21.675 30.5567C21.675 32.4299 21.6683 32.4959 21.4316 32.9843C21.2922 33.2716 20.7949 33.7966 20.5402 33.9254C20.4523 33.9697 20.3492 34.0233 20.3108 34.0444C19.7018 34.3782 18.8415 34.4691 18.6279 34.2221C18.422 33.9843 18.6579 33.3643 18.9541 33.3643C19.0296 33.3643 19.2612 33.0595 19.3473 32.8467C19.4375 32.6238 19.4378 32.6184 19.4494 30.7517L19.4611 28.8803H19.2107C19.0691 28.8803 18.9601 28.8967 18.9601 28.9182C18.9601 28.9391 18.9343 28.9563 18.9027 28.9563C18.8534 28.9563 18.8454 29.0821 18.8454 29.8611C18.8454 31.7271 18.2657 32.4857 16.6185 32.7753C15.2007 33.0245 14.5722 32.4948 15.6609 31.9684C16.5434 31.5416 16.8004 31.0389 16.7734 29.7923L16.7614 29.2412L16.6347 29.2292C16.565 29.2224 16.4875 29.2336 16.4626 29.2539C16.4377 29.2741 16.2839 29.3029 16.121 29.3179C15.958 29.3328 15.8246 29.3583 15.8246 29.3744C15.8246 29.3907 15.7171 29.422 15.5856 29.444C15.1209 29.5222 14.9069 29.5721 14.9069 29.6023C14.9069 29.619 14.8036 29.6447 14.6775 29.6592C14.5513 29.6737 14.4481 29.6995 14.4481 29.7164C14.4481 29.7333 14.362 29.7589 14.2568 29.7732C14.1517 29.7876 14.0657 29.8129 14.0657 29.8295C14.0657 29.8461 13.9886 29.8711 13.8945 29.8851C13.8004 29.8991 13.7143 29.9253 13.7031 29.9431C13.6919 29.9609 13.6142 29.9871 13.5301 30.0013C13.4462 30.0153 13.3774 30.0409 13.3774 30.0582C13.3774 30.0755 13.3085 30.1011 13.2245 30.1152C13.1403 30.1293 13.0715 30.1557 13.0715 30.1739C13.0715 30.1919 13.007 30.2185 12.9281 30.2329C12.8492 30.2473 12.7761 30.2695 12.7656 30.2822C12.755 30.2949 12.6863 30.3323 12.6127 30.3654C12.3801 30.47 11.8678 30.7224 11.8479 30.7422C11.8373 30.7527 11.7471 30.8036 11.6471 30.8555C11.5472 30.9072 11.4655 30.9628 11.4655 30.9789C11.4655 30.995 11.443 31.0083 11.4155 31.0083C11.3679 31.0083 11.1855 31.1412 11.0374 31.2837C10.9994 31.3203 10.9586 31.3502 10.9465 31.3502C10.9346 31.3502 10.9016 31.3716 10.8733 31.3977C10.5501 31.6966 10.4826 31.7668 10.5009 31.7849C10.5127 31.7967 10.5022 31.8062 10.4777 31.8062C10.4532 31.8062 10.4331 31.824 10.4331 31.8459C10.4331 31.8677 10.3895 31.9318 10.3362 31.9884C10.2831 32.0449 10.2295 32.1297 10.2174 32.1767C10.2053 32.2238 10.1843 32.2622 10.1709 32.2622C10.1363 32.2622 10.0191 32.6681 9.99906 32.8575C9.95375 33.2867 10.1039 33.8167 10.3471 34.0854C10.3943 34.1376 10.4331 34.1924 10.4331 34.207C10.4331 34.2467 10.9635 34.7702 11.0037 34.7702C11.0229 34.7702 11.0443 34.7831 11.0513 34.7988C11.0703 34.8413 11.644 35.2262 11.6884 35.2262C11.7096 35.2262 11.7326 35.2393 11.7396 35.2553C11.7466 35.2713 11.8899 35.3526 12.0581 35.4358C12.2264 35.5191 12.3698 35.6 12.3768 35.6158C12.3838 35.6315 12.4164 35.6443 12.4491 35.6443C12.4819 35.6443 12.5794 35.6769 12.6658 35.7168C12.7523 35.7567 12.8918 35.8173 12.976 35.8516C13.06 35.8859 13.1568 35.9291 13.191 35.9475C13.2253 35.966 13.3157 35.9927 13.3918 36.0069C13.468 36.0211 13.5304 36.0469 13.5304 36.0641C13.5304 36.0814 13.6078 36.1071 13.7024 36.1213C13.7971 36.1353 13.8744 36.1609 13.8744 36.1782C13.8744 36.1955 13.9521 36.2212 14.0471 36.2353C14.1419 36.2494 14.2286 36.2757 14.2398 36.2935C14.251 36.3115 14.3454 36.3373 14.4497 36.351C14.5539 36.3648 14.6392 36.3886 14.6392 36.4039C14.6392 36.4192 14.7382 36.4504 14.8591 36.4733C15.2916 36.5549 15.5005 36.6028 15.5638 36.635C15.5992 36.6529 15.7411 36.6791 15.8794 36.6932C16.0175 36.7072 16.1305 36.732 16.1305 36.7483C16.1305 36.7645 16.2598 36.7899 16.4178 36.8045C16.5759 36.8192 16.7138 36.8451 16.7243 36.862C16.7347 36.8789 16.8979 36.9046 17.087 36.9193C17.2759 36.9341 17.4306 36.9592 17.4306 36.9755C17.4306 36.9916 17.6285 37.0171 17.8704 37.032C18.1122 37.0471 18.3101 37.0725 18.3101 37.0885C18.3101 37.1045 18.5724 37.1302 18.8932 37.1455C19.2564 37.1628 19.4866 37.1895 19.5036 37.2163C19.5426 37.2776 24.623 37.2775 24.6994 37.2161C24.73 37.1916 24.9958 37.1613 25.3173 37.1456C25.6277 37.1307 25.8898 37.1051 25.8999 37.0889C25.9099 37.0727 26.1163 37.0471 26.3585 37.0321C26.6007 37.0171 26.7988 36.9916 26.7988 36.9755C26.7988 36.9592 26.9535 36.9341 27.1425 36.9193C27.3315 36.9046 27.4946 36.879 27.5049 36.8624C27.5152 36.8459 27.6488 36.82 27.8018 36.8051C27.9547 36.7901 28.097 36.7643 28.118 36.7477C28.139 36.7311 28.2596 36.7053 28.3857 36.6902C28.5119 36.675 28.6323 36.6516 28.6533 36.638C28.6744 36.6244 28.7905 36.5919 28.9115 36.5657C29.0324 36.5397 29.2303 36.4968 29.3513 36.4708C29.4721 36.4446 29.5884 36.412 29.6096 36.3982C29.6308 36.3844 29.7168 36.3608 29.8008 36.3457C29.8847 36.3307 29.9707 36.3051 29.9917 36.2887C30.0127 36.2724 30.0946 36.247 30.1737 36.2324C30.2529 36.2176 30.327 36.1904 30.3385 36.1719C30.35 36.1534 30.3972 36.1382 30.4432 36.138C30.4893 36.1379 30.5764 36.1123 30.6365 36.0811C30.6968 36.0497 30.7742 36.0237 30.8087 36.023C30.843 36.0222 30.94 35.9886 31.0241 35.9483C31.1082 35.9079 31.191 35.8742 31.2081 35.8735C31.2853 35.8703 32.4713 35.2987 32.4898 35.2557C32.4969 35.2395 32.527 35.2262 32.5568 35.2262C32.5866 35.2262 32.6109 35.2092 32.6109 35.1883C32.6109 35.1673 32.6324 35.1501 32.6588 35.15C32.883 35.1486 34.0644 34.0227 34.0308 33.8424C34.0285 33.8305 34.0643 33.7566 34.1102 33.678C34.2858 33.3776 34.2151 32.2243 34.0211 32.2243C34.0027 32.2243 33.9875 32.1901 33.9875 32.1483C33.9875 32.1064 33.9704 32.0723 33.9493 32.0723C33.9283 32.0723 33.9107 32.0509 33.9102 32.0247C33.9094 31.9845 33.8476 31.9044 33.6097 31.6352C33.5722 31.5927 33.42 31.4644 33.2045 31.2932C33.1253 31.2305 33.0172 31.1407 32.9641 31.0937C32.911 31.0467 32.8442 31.0083 32.8158 31.0083C32.7872 31.0083 32.7639 30.9932 32.7639 30.9747C32.7639 30.9561 32.7338 30.9313 32.697 30.9193C32.6602 30.9073 32.5526 30.8519 32.458 30.796C32.1731 30.6279 32.022 30.5523 31.9711 30.5523C31.9445 30.5523 31.9227 30.5363 31.9227 30.5168C31.9227 30.4973 31.884 30.4704 31.8366 30.4572C31.7894 30.4439 31.699 30.4103 31.636 30.3827C31.5728 30.3549 31.4782 30.3142 31.4256 30.2923C31.3731 30.2703 31.2492 30.2173 31.1504 30.1743C31.0518 30.1313 30.9356 30.0963 30.8924 30.0963C30.8491 30.0963 30.8138 30.0793 30.8138 30.0587C30.8138 30.038 30.7449 30.0102 30.6609 29.9968C30.5767 29.9835 30.5079 29.9596 30.5079 29.9437C30.5079 29.9278 30.4309 29.9033 30.3367 29.8893C30.2426 29.8753 30.1565 29.8492 30.1453 29.8313C30.1342 29.8134 30.0521 29.7869 29.9628 29.7723C29.8736 29.7576 29.7833 29.7324 29.7623 29.7163C29.7412 29.7 29.6466 29.6744 29.5519 29.6592C29.4573 29.644 29.3626 29.6183 29.3416 29.6022C29.3207 29.586 29.2131 29.5606 29.1027 29.5459C28.9923 29.5311 28.8932 29.5049 28.8824 29.4877C28.8717 29.4703 28.751 29.4443 28.6142 29.4297C28.4774 29.4151 28.3572 29.3899 28.347 29.3735C28.3368 29.3571 28.2209 29.3316 28.0895 29.3167C27.9579 29.3019 27.832 29.275 27.8096 29.2571C27.7871 29.2391 27.6236 29.2197 27.4463 29.2139L27.1238 29.2032L27.1119 29.6972C27.0992 30.2174 27.1507 30.6756 27.2414 30.8481C27.2711 30.9048 27.2955 30.97 27.2956 30.9928C27.2971 31.2401 27.8524 31.7856 28.3666 32.0446C28.7412 32.2334 28.7784 32.6216 28.438 32.7904C28.2445 32.8863 27.2135 32.8053 26.7607 32.6585C25.4498 32.234 25.0418 31.5608 25.0406 29.8207L25.0399 28.8803L24.8774 28.8798C24.7881 28.8796 24.6504 28.8688 24.5715 28.8558L24.4281 28.8323L24.4288 30.4807C24.4296 32.5468 24.511 33.015 24.9228 33.3222C25.6295 33.8492 25.4475 34.4062 24.59 34.3403C24.2349 34.3131 24.0925 34.2686 23.5486 34.015C22.9605 33.7408 22.5042 33.2439 22.2992 32.6547L22.1958 32.3573L22.1743 30.5712L22.153 28.7852L21.9615 28.7741C21.8457 28.7673 21.7514 28.7815 21.7225 28.8102Z"
    fill="#7CBBE3"
  />
  <path
    fill-rule="evenodd"
    clip-rule="evenodd"
    d="M16.3026 10.4905C15.0585 10.5823 14.2022 10.9806 13.4657 11.8098C13.3226 11.9711 13.1965 12.1116 13.1858 12.122C13.0086 12.2944 12.4972 13.2164 12.4376 13.4711C12.4229 13.5338 12.3983 13.6022 12.3829 13.6231C12.332 13.6922 12.3008 13.946 12.3432 13.946C12.3652 13.946 12.3832 13.911 12.3832 13.868C12.3832 13.6626 12.8474 12.8094 13.178 12.4071C14.4191 10.8969 15.4422 10.635 18.9601 10.9266C20.3124 11.0387 20.5922 11.0508 21.828 11.0511C23.0543 11.0513 23.2635 11.042 24.6575 10.9263C26.6272 10.7628 28.1734 10.7848 28.4235 10.9799C28.4447 10.9966 28.5288 11.022 28.6103 11.0367C28.6917 11.0513 28.7864 11.0778 28.8205 11.0956C28.8548 11.1134 28.9603 11.1652 29.0549 11.2108C29.8097 11.5748 30.6729 12.4855 31.0711 13.338C31.2259 13.6696 31.2727 13.7872 31.2727 13.8451C31.2727 13.8772 31.2917 13.9153 31.315 13.9296C31.4101 13.988 31.2339 13.4226 31.0124 12.958C30.9341 12.7939 30.5322 12.1883 30.3971 12.0308C29.0776 10.493 27.9296 10.2467 23.7589 10.6062C23.1707 10.6569 20.5003 10.6562 19.8778 10.6051C18.4557 10.4886 16.9727 10.441 16.3026 10.4905ZM16.4054 13.2428C15.5275 13.6489 15.217 15.2019 15.8051 16.2451C16.3563 17.2226 17.4227 17.1459 17.912 16.0936C18.6076 14.5972 17.5998 12.6902 16.4054 13.2428ZM26.7335 13.2466C25.8951 13.6498 25.5765 15.1366 26.1054 16.1779C26.6105 17.1722 27.6793 17.1822 28.205 16.1975C28.993 14.7212 27.9629 12.6554 26.7335 13.2466ZM16.5144 13.8905C16.7215 14.0768 16.671 14.3742 16.4062 14.5279C16.1072 14.7014 15.7626 14.3543 15.902 14.0199C15.9928 13.8022 16.3356 13.7296 16.5144 13.8905ZM26.9774 13.9231C27.2101 14.1219 27.0629 14.5161 26.7561 14.5161C26.4328 14.5161 26.2874 14.1607 26.5173 13.9322C26.6481 13.8023 26.8319 13.7985 26.9774 13.9231ZM31.3748 14.2121C31.3875 14.3271 31.404 14.4282 31.4117 14.4369C31.4413 14.4706 31.4184 14.151 31.3861 14.0791C31.3638 14.0295 31.3599 14.0755 31.3748 14.2121ZM12.2548 14.1441C12.2419 14.1919 12.2332 14.2995 12.2355 14.3831C12.239 14.514 12.2442 14.5039 12.2726 14.3097C12.3065 14.079 12.2968 13.9884 12.2548 14.1441ZM31.358 15.846C31.358 15.9192 31.3658 15.9491 31.3755 15.9126C31.3852 15.876 31.3852 15.8162 31.3755 15.7795C31.3658 15.743 31.358 15.7729 31.358 15.846ZM21.6941 17.0825C21.6099 17.1124 21.5383 17.1372 21.5347 17.1375C21.4794 17.1424 21.3691 17.431 21.3691 17.5706C21.3691 18.0554 22.032 18.2286 22.2883 17.8107C22.5299 17.417 22.1302 16.9273 21.6941 17.0825ZM13.5878 18.5822C13.6699 18.6657 13.7457 18.7342 13.7562 18.7342C13.7667 18.7342 13.708 18.6657 13.6259 18.5822C13.5438 18.4985 13.468 18.4302 13.4575 18.4302C13.447 18.4302 13.5055 18.4985 13.5878 18.5822ZM20.7478 18.6232C20.5341 18.7467 20.8858 19.2886 21.3162 19.4992C21.9346 19.8017 22.6965 19.533 22.9752 18.9143C23.1408 18.5467 22.84 18.4667 22.6369 18.8244C22.3952 19.25 21.9263 19.4108 21.5008 19.2139C21.3163 19.1286 21.0249 18.8458 21.0249 18.7521C21.0249 18.6352 20.8598 18.5583 20.7478 18.6232ZM20.3281 20.586C20.4181 20.594 20.5557 20.5939 20.634 20.5857C20.7124 20.5776 20.6388 20.571 20.4705 20.5712C20.3023 20.5713 20.2382 20.5779 20.3281 20.586ZM23.6538 20.5862C23.7642 20.5938 23.9449 20.5938 24.0553 20.5862C24.1657 20.5785 24.0754 20.5722 23.8545 20.5722C23.6337 20.5722 23.5434 20.5785 23.6538 20.5862ZM21.6655 20.6244C21.8599 20.6313 22.1783 20.6313 22.3728 20.6244C22.5673 20.6176 22.4081 20.6119 22.0191 20.6119C21.6301 20.6119 21.4709 20.6176 21.6655 20.6244Z"
    fill="#AC5C54"
  />
  <path
    fill-rule="evenodd"
    clip-rule="evenodd"
    d="M17.0387 10.4388C17.0859 10.4478 17.1634 10.4478 17.2107 10.4388C17.2581 10.4298 17.2193 10.4224 17.1247 10.4224C17.03 10.4224 16.9913 10.4298 17.0387 10.4388ZM26.37 10.4401C26.4811 10.4477 26.6531 10.4477 26.7524 10.44C26.8515 10.4321 26.7607 10.4258 26.5503 10.4259C26.34 10.426 26.2588 10.4324 26.37 10.4401ZM15.9585 10.4884C15.8743 10.5035 16.012 10.5073 16.2644 10.4968C16.5167 10.4861 16.7304 10.4713 16.7391 10.4637C16.7674 10.4394 16.1164 10.46 15.9585 10.4884ZM17.472 10.464C17.4807 10.4717 17.8493 10.4867 18.2909 10.4973C18.7967 10.5096 18.9665 10.5059 18.7498 10.4874C18.3921 10.4569 17.4442 10.4395 17.472 10.464ZM24.8296 10.4892C24.6824 10.5033 24.8803 10.5067 25.2693 10.4968C25.6584 10.4868 25.9839 10.4722 25.9927 10.4643C26.0176 10.4418 25.1267 10.4609 24.8296 10.4892ZM27.0697 10.4641C27.0784 10.4718 27.2749 10.4875 27.5062 10.4989C27.7871 10.5128 27.8697 10.5091 27.7548 10.4877C27.5839 10.4558 27.0392 10.4371 27.0697 10.4641ZM19.2374 10.5522C19.2742 10.5618 19.3343 10.5618 19.3711 10.5522C19.408 10.5427 19.3779 10.5348 19.3043 10.5348C19.2307 10.5348 19.2006 10.5427 19.2374 10.5522ZM24.2464 10.5522C24.2833 10.5618 24.3435 10.5618 24.3803 10.5522C24.4171 10.5427 24.3869 10.5348 24.3133 10.5348C24.2397 10.5348 24.2096 10.5427 24.2464 10.5522ZM15.3658 10.602C15.2901 10.6261 15.2861 10.6324 15.3467 10.6324C15.3887 10.6324 15.4662 10.6187 15.5187 10.602C15.5944 10.5779 15.5984 10.5716 15.5378 10.5716C15.4957 10.5716 15.4183 10.5853 15.3658 10.602ZM19.8778 10.604C20.0775 10.619 20.4304 10.6305 20.6616 10.6291L21.0823 10.6267L20.6235 10.6005C20.371 10.5861 20.0183 10.5748 19.8396 10.5753L19.5145 10.5763L19.8778 10.604ZM22.9751 10.602L22.5736 10.6251L22.9942 10.6283C23.2256 10.6301 23.5783 10.619 23.778 10.604L24.1413 10.5763L23.7589 10.5776C23.5486 10.5784 23.1959 10.5893 22.9751 10.602ZM28.1563 10.602C28.318 10.6429 28.4569 10.6429 28.3283 10.602C28.2758 10.5853 28.1898 10.572 28.1372 10.5723C28.0513 10.573 28.0533 10.576 28.1563 10.602ZM21.5698 10.6682C21.7118 10.6755 21.9441 10.6755 22.086 10.6682C22.228 10.6609 22.1119 10.6549 21.828 10.6549C21.544 10.6549 21.4279 10.6609 21.5698 10.6682ZM14.9834 10.7161C14.9324 10.7488 14.9324 10.7529 14.9834 10.7529C15.0149 10.7529 15.0665 10.7363 15.098 10.7161C15.1491 10.6833 15.1491 10.6792 15.098 10.6792C15.0665 10.6792 15.0149 10.6957 14.9834 10.7161ZM28.5768 10.7161C28.6912 10.7649 28.7867 10.7649 28.7107 10.7161C28.6792 10.6957 28.6189 10.6801 28.5768 10.6813L28.5004 10.6834L28.5768 10.7161ZM14.6561 10.8485C14.5883 10.9002 14.5925 10.9014 14.7061 10.8637C14.836 10.8208 14.8656 10.7921 14.7804 10.7921C14.7528 10.7921 14.6969 10.8174 14.6561 10.8485ZM29.126 10.9414C29.5828 11.1955 30.0119 11.5619 30.3674 12.0014C30.4236 12.0709 30.4696 12.107 30.4696 12.0816C30.4696 11.8989 29.284 10.925 28.921 10.8093C28.879 10.796 28.9712 10.8554 29.126 10.9414ZM13.9489 11.2982C13.6873 11.5129 13.1862 12.0324 13.1862 12.0889C13.1862 12.1074 13.3047 11.9889 13.4495 11.8256C13.5944 11.6622 13.8267 11.4368 13.9658 11.3246C14.1958 11.1392 14.2413 11.0961 14.2069 11.0961C14.2005 11.0961 14.0843 11.187 13.9489 11.2982ZM13.0476 12.2645C12.9344 12.4188 12.8996 12.4974 12.9927 12.3881C13.079 12.2868 13.1594 12.1601 13.1374 12.1601C13.1301 12.1601 13.0897 12.207 13.0476 12.2645ZM30.6594 12.3786C30.7459 12.5092 30.8256 12.6161 30.8365 12.6161C30.8686 12.6161 30.7415 12.418 30.6171 12.274C30.5309 12.1745 30.5416 12.2008 30.6594 12.3786ZM12.7859 12.6445C12.7454 12.7229 12.7044 12.8025 12.6948 12.8214C12.6851 12.8403 12.6972 12.8436 12.7215 12.8286C12.7457 12.8138 12.7656 12.7838 12.7656 12.7621C12.7656 12.7405 12.8012 12.6731 12.8446 12.6124C12.8882 12.5517 12.9093 12.502 12.8917 12.502C12.874 12.502 12.8263 12.5661 12.7859 12.6445ZM31.1022 13.1576C31.1166 13.2045 31.144 13.2597 31.1633 13.2802C31.1825 13.3006 31.1788 13.2621 31.1553 13.1947C31.1068 13.0566 31.0621 13.0252 31.1022 13.1576ZM12.4959 13.2104C12.4748 13.2654 12.4647 13.3177 12.4733 13.3262C12.482 13.3348 12.5073 13.2898 12.5298 13.226C12.5794 13.0842 12.5494 13.0704 12.4959 13.2104ZM31.1991 13.3761C31.1994 13.4074 31.2239 13.4843 31.2537 13.547L31.3078 13.661L31.285 13.547C31.2566 13.4043 31.1982 13.2882 31.1991 13.3761ZM12.4214 13.3858C12.4214 13.3912 12.4045 13.4541 12.3839 13.5258C12.3632 13.5973 12.3611 13.64 12.379 13.6205C12.4181 13.578 12.4696 13.3761 12.4413 13.3761C12.4304 13.3761 12.4214 13.3804 12.4214 13.3858ZM31.3347 13.851C31.3723 14.0765 31.4272 14.1885 31.4 13.9841C31.3874 13.89 31.3619 13.7874 31.3432 13.7561C31.3221 13.7206 31.3189 13.7565 31.3347 13.851ZM12.2896 13.8035C12.2815 13.8297 12.2655 13.928 12.254 14.022C12.2296 14.2218 12.2832 14.1179 12.3177 13.8986C12.3391 13.763 12.321 13.7022 12.2896 13.8035ZM31.4363 14.915C31.4374 15.441 31.4377 15.4428 31.4629 15.0776C31.4769 14.8744 31.4765 14.6349 31.4617 14.5456C31.4454 14.4459 31.4356 14.5889 31.4363 14.915ZM12.2066 14.8771C12.2067 15.1278 12.2129 15.2256 12.2204 15.094C12.2279 14.9626 12.2278 14.7574 12.2203 14.638C12.2127 14.5187 12.2065 14.6262 12.2066 14.8771ZM12.2392 15.542C12.2392 15.6152 12.247 15.6451 12.2566 15.6085C12.2663 15.572 12.2663 15.5122 12.2566 15.4755C12.247 15.4389 12.2392 15.4689 12.2392 15.542ZM31.3962 15.694C31.3962 15.7672 31.4041 15.7971 31.4137 15.7605C31.4233 15.724 31.4233 15.6642 31.4137 15.6275C31.4041 15.5909 31.3962 15.6209 31.3962 15.694ZM12.2774 15.8651C12.2774 15.9277 12.2907 16.0304 12.3068 16.0931C12.3473 16.251 12.349 16.0955 12.309 15.903C12.2823 15.7753 12.2773 15.7692 12.2774 15.8651ZM31.3318 16.1328C31.3171 16.2297 31.3137 16.3176 31.3243 16.3281C31.3348 16.3385 31.3554 16.2677 31.37 16.1708C31.3846 16.0739 31.388 15.986 31.3774 15.9755C31.367 15.9651 31.3464 16.0358 31.3318 16.1328ZM12.3865 16.435C12.3853 16.4769 12.4011 16.5368 12.4214 16.5681C12.4705 16.6436 12.4705 16.5486 12.4214 16.435L12.3885 16.359L12.3865 16.435ZM31.2153 16.7201C31.2008 16.7858 31.1975 16.8481 31.208 16.8585C31.2185 16.869 31.239 16.8237 31.2536 16.758C31.2681 16.6924 31.2713 16.6301 31.2608 16.6196C31.2503 16.6092 31.2298 16.6544 31.2153 16.7201ZM12.4991 16.834C12.4991 16.8654 12.5157 16.9168 12.5362 16.9481C12.5691 16.9987 12.5732 16.9987 12.5732 16.9481C12.5732 16.9168 12.5566 16.8654 12.5362 16.834C12.5032 16.7834 12.4991 16.7834 12.4991 16.834ZM30.8733 17.7013C30.8601 17.7427 30.7641 17.9193 30.66 18.0938C30.5559 18.2683 30.5099 18.364 30.5578 18.3062C30.671 18.1704 30.9423 17.6712 30.9169 17.6458C30.9061 17.6352 30.8865 17.6601 30.8733 17.7013ZM13.1283 18.0691C13.2628 18.2548 13.4539 18.4784 13.4539 18.4499C13.4539 18.4273 13.1273 18.0174 13.0596 17.955C13.0369 17.9341 13.0678 17.9854 13.1283 18.0691ZM30.0487 18.8476C29.6369 19.2677 29.6196 19.325 30.0222 18.9352C30.2153 18.7483 30.5021 18.4224 30.4633 18.4339C30.4563 18.436 30.2698 18.6221 30.0487 18.8476ZM13.7215 18.7459C13.7215 18.7524 13.7775 18.7979 13.8458 18.8469L13.9701 18.9361L13.8773 18.835C13.7982 18.7488 13.7215 18.705 13.7215 18.7459ZM14.1039 19.0571C14.1752 19.1093 14.243 19.152 14.2548 19.1518C14.2909 19.1516 14.0488 18.9649 14.0105 18.9634C13.9906 18.9627 14.0327 19.0049 14.1039 19.0571ZM14.3141 19.1899C14.3416 19.234 14.7928 19.5064 14.8093 19.4886C14.8162 19.4812 14.7029 19.4033 14.5574 19.3156C14.4121 19.2278 14.3026 19.1713 14.3141 19.1899ZM29.2541 19.4813C29.1638 19.5354 29.0977 19.5873 29.107 19.5966C29.1257 19.6153 29.4373 19.4284 29.4373 19.3986C29.4373 19.372 29.4345 19.3732 29.2541 19.4813ZM15.1532 19.6669C15.2354 19.728 15.3054 19.7406 15.273 19.6886C15.2616 19.6702 15.2133 19.6454 15.1656 19.6336C15.0821 19.6126 15.0816 19.6138 15.1532 19.6669ZM15.3658 19.7537C15.3973 19.773 15.4662 19.8003 15.5187 19.8142C15.5852 19.832 15.5968 19.829 15.5569 19.8045C15.5254 19.7851 15.4566 19.7578 15.4039 19.7438C15.3376 19.7262 15.3259 19.7292 15.3658 19.7537ZM28.7107 19.779C28.6582 19.809 28.6323 19.8334 28.6533 19.8334C28.6744 19.8334 28.7346 19.809 28.7872 19.779C28.8397 19.7492 28.8656 19.7248 28.8446 19.7248C28.8235 19.7248 28.7633 19.7492 28.7107 19.779ZM15.6717 19.8676C15.7032 19.887 15.7721 19.9144 15.8246 19.9283C15.8911 19.946 15.9027 19.9429 15.8628 19.9185C15.8313 19.8992 15.7625 19.8718 15.7098 19.8579C15.6435 19.8402 15.6318 19.8432 15.6717 19.8676ZM28.4431 19.8931C28.3904 19.9229 28.3647 19.9474 28.3857 19.9474C28.4068 19.9474 28.4669 19.9229 28.5196 19.8931C28.5721 19.8632 28.5979 19.8388 28.5768 19.8388C28.5558 19.8388 28.4957 19.8632 28.4431 19.8931ZM15.9986 19.9841C16.0186 20.0028 16.0951 20.0283 16.1687 20.0408L16.3026 20.0634L16.1687 20.0097C16.0087 19.9453 15.9473 19.9362 15.9986 19.9841ZM16.379 20.0948C16.4001 20.1146 16.4861 20.1412 16.5703 20.1539C16.6675 20.1684 16.6953 20.1653 16.6468 20.1451C16.5104 20.0885 16.3381 20.0562 16.379 20.0948ZM27.7739 20.1225C27.6225 20.1746 27.6222 20.1749 27.7548 20.1532C27.8284 20.1412 27.9144 20.1168 27.946 20.0989C28.0301 20.0512 27.9488 20.0624 27.7739 20.1225ZM16.8391 20.2109C16.8595 20.2298 16.9622 20.2552 17.0673 20.2673C17.1861 20.281 17.2223 20.2778 17.1629 20.2589C16.987 20.203 16.8007 20.1754 16.8391 20.2109ZM27.3151 20.2357L27.1621 20.2875L27.3151 20.2659C27.4764 20.2432 27.6382 20.1787 27.5254 20.1821C27.4938 20.1832 27.3991 20.2073 27.3151 20.2357ZM17.4115 20.3291C17.4845 20.3612 17.7283 20.3829 17.6951 20.3544C17.6864 20.3468 17.6017 20.3305 17.5071 20.318C17.3922 20.3029 17.3604 20.3066 17.4115 20.3291ZM26.8371 20.3301C26.7064 20.3574 26.7059 20.3581 26.8179 20.3604C26.8811 20.3617 26.9671 20.3481 27.0092 20.3301C27.1011 20.2908 27.0248 20.2908 26.8371 20.3301ZM18.138 20.4438C18.2105 20.475 18.6083 20.4973 18.5745 20.4684C18.5658 20.4609 18.4467 20.4449 18.3101 20.4329C18.1562 20.4194 18.0907 20.4235 18.138 20.4438ZM26.0532 20.4441L25.862 20.4701L26.0341 20.4723C26.1287 20.4736 26.2491 20.4609 26.3017 20.4441C26.4207 20.4062 26.331 20.4062 26.0532 20.4441ZM18.6833 20.509C18.7309 20.518 18.7997 20.5177 18.8362 20.5082C18.8728 20.4987 18.8339 20.4913 18.7498 20.4916C18.6657 20.4921 18.6358 20.4998 18.6833 20.509ZM25.6426 20.509C25.6901 20.518 25.759 20.5177 25.7956 20.5082C25.8321 20.4987 25.7932 20.4913 25.7091 20.4916C25.6249 20.4921 25.595 20.4998 25.6426 20.509ZM19.266 20.5606C19.437 20.5902 20.2109 20.6086 20.1805 20.5824C20.1717 20.5748 19.9237 20.5601 19.6293 20.5497C19.315 20.5387 19.165 20.5432 19.266 20.5606ZM24.6384 20.5581L24.2178 20.5811L24.6192 20.5858C24.8402 20.5883 25.0982 20.5768 25.1929 20.5601L25.3649 20.5296L25.2119 20.5323C25.1279 20.5339 24.8697 20.5454 24.6384 20.5581ZM20.5183 20.6243C20.6707 20.6315 20.9203 20.6315 21.0728 20.6243C21.2252 20.6171 21.1005 20.6112 20.7955 20.6112C20.4905 20.6112 20.3659 20.6171 20.5183 20.6243ZM23.0631 20.6244C23.2693 20.6313 23.5962 20.6313 23.7896 20.6244C23.9831 20.6174 23.8144 20.6118 23.4148 20.612C23.0152 20.612 22.857 20.6176 23.0631 20.6244Z"
    fill="#6D6662"
  />
  <path
    fill-rule="evenodd"
    clip-rule="evenodd"
    d="M10.9253 22.4487C10.8796 22.5065 10.8803 22.5095 10.9302 22.4718C10.9617 22.4479 11.022 22.4199 11.064 22.4096C11.1366 22.3919 11.1364 22.3907 11.0591 22.3865C11.0144 22.3841 10.9541 22.4121 10.9253 22.4487ZM11.3718 22.7132C11.4025 22.8336 11.3295 22.9446 11.2074 22.963L11.1023 22.9787L11.2066 22.9844C11.349 22.9922 11.4575 22.8355 11.3941 22.7134L11.3504 22.6291L11.3718 22.7132ZM11.9275 23.3796C11.9364 23.3849 11.9951 23.4319 12.0581 23.4841L12.1729 23.5792L12.0802 23.4746C12.0293 23.4171 11.9704 23.3702 11.9496 23.3702C11.9286 23.3702 11.9188 23.3744 11.9275 23.3796ZM12.6987 24.2323C12.7355 24.2419 12.7957 24.2419 12.8325 24.2323C12.8693 24.2227 12.8392 24.215 12.7656 24.215C12.692 24.215 12.6619 24.2227 12.6987 24.2323ZM16.632 24.669C16.6288 24.7426 16.6037 24.7754 16.5415 24.7873L16.4555 24.8038L16.5428 24.809C16.6376 24.8146 16.6827 24.7444 16.6543 24.6359C16.6424 24.5898 16.635 24.6007 16.632 24.669ZM14.376 24.873C14.3735 24.9159 14.3545 24.9715 14.3335 24.9967C14.3125 25.0218 14.3227 25.0187 14.3563 24.9898C14.3898 24.9608 14.4089 24.9051 14.3988 24.8662C14.3823 24.8022 14.38 24.8028 14.376 24.873ZM15.2988 25.1064C15.3356 25.1159 15.3959 25.1159 15.4327 25.1064C15.4695 25.0968 15.4394 25.089 15.3658 25.089C15.2922 25.089 15.262 25.0968 15.2988 25.1064ZM22.172 30.4305L22.1911 32.0912L22.2011 30.4595C22.2067 29.562 22.198 28.8147 22.1821 28.7988C22.1661 28.783 22.1616 29.5172 22.172 30.4305ZM21.6456 32.2242C21.6456 32.2973 21.6535 32.3273 21.6631 32.2907C21.6727 32.2542 21.6727 32.1943 21.6631 32.1577C21.6535 32.1211 21.6456 32.1511 21.6456 32.2242ZM16.7997 32.7181C16.7022 32.7597 16.8028 32.7597 16.9334 32.7181C17.0104 32.6937 17.0141 32.6875 16.9527 32.6866C16.9106 32.686 16.8417 32.7002 16.7997 32.7181ZM26.9518 32.7181C27.0825 32.7597 27.1831 32.7597 27.0857 32.7181C27.0436 32.7002 26.9748 32.686 26.9327 32.6866C26.8712 32.6875 26.875 32.6937 26.9518 32.7181ZM28.3093 32.7941L28.1945 32.8232L28.2974 32.8276C28.354 32.8301 28.4109 32.8151 28.4239 32.7941C28.4369 32.7732 28.4423 32.7581 28.4358 32.7607C28.4293 32.7632 28.3723 32.7783 28.3093 32.7941ZM15.4901 32.8203C15.5269 32.8299 15.587 32.8299 15.6238 32.8203C15.6606 32.8108 15.6305 32.8029 15.5569 32.8029C15.4833 32.8029 15.4532 32.8108 15.4901 32.8203ZM16.0445 32.8217C16.1128 32.8301 16.2247 32.8301 16.293 32.8217C16.3613 32.8132 16.3054 32.8064 16.1687 32.8064C16.0321 32.8064 15.9761 32.8132 16.0445 32.8217ZM27.5922 32.8217C27.6607 32.8301 27.7724 32.8301 27.8409 32.8217C27.9092 32.8132 27.8533 32.8064 27.7165 32.8064C27.5798 32.8064 27.5239 32.8132 27.5922 32.8217ZM22.8221 33.4916C22.9378 33.6127 23.0669 33.7299 23.109 33.7521C23.1509 33.7744 23.1768 33.7851 23.1662 33.7762C23.1558 33.7672 23.0267 33.6499 22.8795 33.5156L22.6118 33.2714L22.8221 33.4916ZM20.8505 33.6777L20.7381 33.8012L20.8624 33.6896C20.9307 33.6282 20.9867 33.5727 20.9867 33.566C20.9867 33.5367 20.9551 33.5626 20.8505 33.6777ZM18.5766 33.7083C18.5535 33.7513 18.5402 33.8033 18.5471 33.824C18.554 33.8445 18.5794 33.8095 18.6036 33.7458C18.6539 33.6136 18.6389 33.5927 18.5766 33.7083ZM18.541 34.0796C18.5391 34.1451 18.7479 34.3527 18.8138 34.3507C18.8416 34.3498 18.8175 34.3239 18.7601 34.2929C18.7027 34.2619 18.6303 34.1899 18.5992 34.1329C18.5681 34.0759 18.5418 34.0519 18.541 34.0796ZM19.9352 34.1825C19.839 34.2285 19.8359 34.2337 19.9161 34.2145C19.9686 34.2019 20.028 34.1764 20.048 34.1579C20.0976 34.1119 20.0703 34.1178 19.9352 34.1825ZM23.8545 34.1461C23.8545 34.1717 24.0532 34.2435 24.0721 34.2247C24.0808 34.216 24.0354 34.1908 23.9712 34.1685C23.9071 34.1464 23.8545 34.1362 23.8545 34.1461ZM19.6102 34.2762C19.5314 34.3012 19.5281 34.3072 19.591 34.3098C19.6331 34.3116 19.6933 34.2964 19.7248 34.2762C19.7919 34.2331 19.7453 34.2331 19.6102 34.2762ZM24.1987 34.2745C24.2302 34.2956 24.289 34.3132 24.3293 34.3136C24.4272 34.3144 24.3966 34.2927 24.2561 34.2613C24.1722 34.2427 24.1568 34.2463 24.1987 34.2745Z"
    fill="#60869C"
  />
  <path
    fill-rule="evenodd"
    clip-rule="evenodd"
    d="M9.48479 21.1736C9.42913 21.2289 9.42533 21.3053 9.47674 21.3368C9.49847 21.3501 9.5048 21.3348 9.49157 21.3005C9.47892 21.2678 9.48985 21.2157 9.51584 21.1846C9.57219 21.1169 9.54976 21.1091 9.48479 21.1736ZM9.87636 21.4357C9.8621 21.4585 9.79356 21.4707 9.72387 21.4627C9.65418 21.4545 9.60565 21.4615 9.61589 21.478C9.6482 21.5299 9.84796 21.5108 9.89775 21.451C9.92397 21.4197 9.9357 21.3941 9.92386 21.3941C9.91201 21.3941 9.89062 21.4128 9.87636 21.4357ZM10.2114 21.6296C10.1861 21.6548 10.1659 21.6932 10.1666 21.7151C10.1672 21.7371 10.1853 21.7252 10.2068 21.6886C10.2628 21.5928 10.4088 21.6067 10.545 21.7206C10.6098 21.7748 10.6536 21.7952 10.6424 21.7661C10.5905 21.6318 10.3013 21.5403 10.2114 21.6296ZM10.5096 22.0781C10.4308 22.1031 10.4274 22.1091 10.4905 22.1117C10.5326 22.1134 10.5927 22.0983 10.6243 22.0781C10.6913 22.035 10.6448 22.035 10.5096 22.0781ZM11.6896 23.3724L11.5993 23.4505L11.7141 23.3838C11.8651 23.2959 11.8672 23.2941 11.8202 23.2941C11.798 23.2941 11.7392 23.3293 11.6896 23.3724ZM12.0806 23.4695C12.1314 23.5348 12.1806 23.5813 12.19 23.5729C12.1994 23.5646 12.1578 23.5112 12.0977 23.4544L11.9883 23.3511L12.0806 23.4695ZM11.5808 23.5443C11.5811 23.5843 11.5988 23.6427 11.6202 23.6741C11.6485 23.7157 11.6521 23.7004 11.6333 23.6171C11.6019 23.4773 11.58 23.447 11.5808 23.5443ZM12.1633 23.8631C12.1385 23.9025 12.0703 23.942 12.0118 23.9508C11.9055 23.9667 11.9055 23.9667 12.0044 23.9724C12.0951 23.9775 12.2671 23.85 12.2254 23.8086C12.2159 23.7992 12.188 23.8238 12.1633 23.8631ZM12.5234 24.3073C12.4887 24.3419 12.4911 24.5014 12.5267 24.5232C12.5424 24.5328 12.5553 24.4825 12.5553 24.4115C12.5553 24.3403 12.5539 24.2821 12.5521 24.2821C12.5503 24.2821 12.5375 24.2935 12.5234 24.3073ZM16.4843 24.3213C16.3562 24.3724 16.3801 24.3984 16.5129 24.3524C16.576 24.3305 16.6276 24.3057 16.6276 24.2974C16.6276 24.2748 16.5811 24.2825 16.4843 24.3213ZM13.1671 24.548C13.1671 24.6068 13.18 24.6469 13.1957 24.6372C13.2116 24.6275 13.2245 24.5875 13.2245 24.548C13.2245 24.5087 13.2116 24.4686 13.1957 24.4589C13.18 24.4493 13.1671 24.4894 13.1671 24.548ZM13.9418 24.6129C13.9895 24.6221 14.0582 24.6217 14.0948 24.6121C14.1314 24.6027 14.0925 24.5952 14.0083 24.5957C13.9242 24.596 13.8942 24.6038 13.9418 24.6129ZM15.1066 24.6832C15.0599 24.7158 15.0216 24.7617 15.0216 24.7855C15.0216 24.8092 15.0431 24.8019 15.0694 24.7691C15.0958 24.7363 15.1516 24.6908 15.1937 24.6679C15.2357 24.6451 15.2525 24.6259 15.2309 24.6252C15.2093 24.6246 15.1534 24.6507 15.1066 24.6832ZM15.643 24.7221C15.7836 24.888 15.6941 25.0471 15.4212 25.1165L15.2702 25.1549L15.419 25.138C15.7009 25.106 15.8396 24.8648 15.6621 24.7155C15.5761 24.6431 15.5761 24.6431 15.643 24.7221ZM12.7906 24.7476C12.8004 24.7632 12.8666 24.776 12.9377 24.776C13.0087 24.776 13.075 24.7632 13.0847 24.7476C13.0944 24.7319 13.0283 24.7191 12.9377 24.7191C12.847 24.7191 12.7809 24.7319 12.7906 24.7476ZM14.9834 24.8796C14.9834 24.9016 15.0188 24.96 15.0622 25.0094L15.1408 25.0991L15.0737 24.9851C14.9852 24.835 14.9834 24.8328 14.9834 24.8796ZM13.8995 25.0895C13.9093 25.1053 13.9927 25.1181 14.0848 25.1181C14.1769 25.1181 14.2603 25.1053 14.2701 25.0895C14.2798 25.0739 14.1965 25.0611 14.0848 25.0611C13.9731 25.0611 13.8898 25.0739 13.8995 25.0895ZM21.6542 28.8136C21.6442 28.8397 21.6404 29.5964 21.6459 30.4951L21.6559 32.1292L21.675 30.4476C21.6855 29.5228 21.6893 28.7661 21.6833 28.7661C21.6774 28.7661 21.6643 28.7875 21.6542 28.8136ZM22.2103 30.5064L22.2294 32.2431L22.2393 30.5355C22.2448 29.5961 22.2362 28.8147 22.2202 28.7988C22.2043 28.7829 22.1998 29.5513 22.2103 30.5064ZM24.4072 30.3051C24.4072 31.0993 24.4123 31.4296 24.4185 31.0391C24.4247 30.6486 24.4247 29.9988 24.4185 29.5951C24.4123 29.1913 24.4072 29.5109 24.4072 30.3051ZM19.4663 30.7105C19.4614 31.7068 19.4474 32.5532 19.4352 32.5915C19.4154 32.6542 19.4173 32.6548 19.4547 32.5973C19.4835 32.5532 19.493 31.9749 19.4859 30.7164L19.4755 28.8991L19.4663 30.7105ZM25.0563 29.7921C25.0563 30.2623 25.0618 30.4548 25.0684 30.2196C25.0751 29.9845 25.0751 29.5997 25.0684 29.3646C25.0618 29.1295 25.0563 29.3219 25.0563 29.7921ZM18.8159 29.7583C18.8111 30.189 18.799 30.625 18.7891 30.7273L18.771 30.913L18.809 30.7333C18.8299 30.6343 18.8419 30.1983 18.8358 29.7642L18.8246 28.9751L18.8159 29.7583ZM27.0822 29.8111C27.0821 30.1664 27.0878 30.3168 27.095 30.1455C27.102 29.9741 27.102 29.6833 27.095 29.4995C27.088 29.3156 27.0822 29.4558 27.0822 29.8111ZM16.7805 29.8984L16.7995 30.5711L16.8101 29.9279C16.8159 29.5742 16.8074 29.2715 16.7911 29.2552C16.7748 29.239 16.77 29.5284 16.7805 29.8984ZM27.1113 30.5711C27.1106 30.6129 27.1249 30.6813 27.143 30.7231C27.1849 30.8199 27.1849 30.72 27.143 30.5901C27.1184 30.5137 27.1121 30.51 27.1113 30.5711ZM16.489 31.3406C16.3759 31.4949 16.3411 31.5735 16.4342 31.4641C16.5204 31.3629 16.6008 31.2361 16.5788 31.2361C16.5714 31.2361 16.5311 31.2831 16.489 31.3406ZM18.5338 31.5423C18.4787 31.6451 18.449 31.7197 18.468 31.708C18.5091 31.6829 18.6651 31.3862 18.6468 31.3681C18.6398 31.3612 18.589 31.4396 18.5338 31.5423ZM27.6768 31.6256C27.7705 31.7249 27.8522 31.8061 27.8583 31.8061C27.8871 31.8061 27.8567 31.772 27.6879 31.6145L27.5062 31.445L27.6768 31.6256ZM15.9879 31.8017C15.878 31.8748 15.7951 31.9414 15.8037 31.95C15.8157 31.9618 16.1048 31.7848 16.2038 31.7049C16.2968 31.63 16.1424 31.6992 15.9879 31.8017ZM24.3956 32.0151C24.3953 32.1614 24.4088 32.3153 24.4254 32.3572C24.4422 32.3992 24.4481 32.2976 24.4388 32.1292C24.4172 31.7341 24.396 31.6783 24.3956 32.0151ZM28.4827 32.1716C28.5345 32.2366 28.5987 32.3222 28.6253 32.3615C28.6538 32.4038 28.6515 32.3863 28.6196 32.319C28.5899 32.2562 28.5257 32.1708 28.477 32.1291C28.3915 32.0557 28.3916 32.0572 28.4827 32.1716ZM26.015 32.2807C26.1005 32.3513 26.3426 32.4814 26.2826 32.4245C26.2616 32.4046 26.1755 32.3499 26.0915 32.3029C26.0073 32.256 25.9729 32.246 26.015 32.2807ZM17.6887 32.3598C17.5457 32.4369 17.5545 32.4691 17.6983 32.3951C17.7613 32.3627 17.813 32.328 17.813 32.3181C17.813 32.2937 17.8088 32.2951 17.6887 32.3598ZM17.3923 32.5092C17.3398 32.539 17.314 32.5635 17.335 32.5635C17.3561 32.5635 17.4162 32.539 17.4689 32.5092C17.5215 32.4792 17.5472 32.4548 17.5262 32.4548C17.5051 32.4548 17.445 32.4792 17.3923 32.5092ZM28.6372 32.5252C28.6356 32.5549 28.6048 32.6147 28.5688 32.6581C28.5071 32.7326 28.5083 32.7325 28.5924 32.6556C28.6414 32.6108 28.6722 32.5509 28.6609 32.5225C28.6443 32.4808 28.6398 32.4814 28.6372 32.5252ZM26.7224 32.6231C26.796 32.6513 26.882 32.6743 26.9136 32.6743C26.9451 32.6743 26.9107 32.6513 26.8371 32.6231C26.7634 32.595 26.6774 32.5719 26.6459 32.5719C26.6144 32.5719 26.6488 32.595 26.7224 32.6231ZM15.28 32.7086C15.3296 32.7557 15.3906 32.7936 15.4157 32.7929C15.4408 32.7924 15.427 32.7728 15.3849 32.7496C15.3428 32.7264 15.2817 32.6885 15.2492 32.6653C15.2166 32.6421 15.2304 32.6616 15.28 32.7086ZM16.6085 32.7181L16.4555 32.7453L16.5894 32.748C16.663 32.7495 16.7576 32.736 16.7997 32.7181C16.8898 32.6797 16.8248 32.6797 16.6085 32.7181ZM27.0857 32.7179C27.1587 32.7493 27.4407 32.7709 27.4074 32.7424C27.3987 32.735 27.3055 32.719 27.2003 32.7069C27.0774 32.6927 27.0364 32.6966 27.0857 32.7179ZM15.7391 32.8209C15.7866 32.8301 15.8554 32.8297 15.892 32.8203C15.9286 32.8108 15.8896 32.8032 15.8055 32.8037C15.7214 32.8041 15.6915 32.8119 15.7391 32.8209ZM28.0134 32.8209C28.0609 32.8301 28.1297 32.8297 28.1663 32.8203C28.2029 32.8108 28.1639 32.8032 28.0798 32.8037C27.9957 32.8041 27.9658 32.8119 28.0134 32.8209ZM18.743 33.5256C18.7004 33.5726 18.6519 33.6368 18.6352 33.6681C18.6029 33.7286 18.6117 33.7204 18.7666 33.5446C18.8173 33.4871 18.8502 33.4401 18.8396 33.4401C18.8291 33.4401 18.7856 33.4785 18.743 33.5256ZM20.7942 33.6788C20.741 33.7252 20.655 33.7937 20.6031 33.8312C20.5124 33.8968 20.5136 33.8968 20.6353 33.8312C20.7049 33.7937 20.7983 33.7246 20.8428 33.6776C20.9457 33.5688 20.9199 33.5694 20.7942 33.6788ZM25.2884 33.8772C25.2884 33.9672 25.3011 34.0212 25.3165 33.9969C25.332 33.9728 25.3447 33.9189 25.3447 33.8772C25.3447 33.8353 25.332 33.7814 25.3165 33.7573C25.3011 33.7332 25.2884 33.7871 25.2884 33.8772ZM18.5567 33.874C18.5432 33.9454 18.5467 34.0296 18.5645 34.0612C18.5858 34.0989 18.5979 34.0544 18.5997 33.9313C18.6029 33.7113 18.5905 33.6948 18.5567 33.874ZM20.3654 33.9559C20.2223 34.0329 20.2311 34.0651 20.3749 33.9911C20.438 33.9587 20.4896 33.924 20.4896 33.9142C20.4896 33.8897 20.4855 33.8911 20.3654 33.9559ZM20.0498 34.1064C19.9543 34.1523 19.9511 34.1575 20.0308 34.1382C20.1391 34.1118 20.2609 34.0502 20.2028 34.051C20.1819 34.0513 20.113 34.0763 20.0498 34.1064ZM23.7398 34.0797C23.7714 34.0991 23.8402 34.1263 23.8928 34.1404C23.9593 34.158 23.9709 34.155 23.931 34.1305C23.8995 34.1111 23.8307 34.0839 23.778 34.0699C23.7117 34.0523 23.6999 34.0552 23.7398 34.0797ZM18.8207 34.323C18.8737 34.3568 19.3264 34.3544 19.4507 34.3197C19.4997 34.306 19.3681 34.2949 19.1584 34.2949C18.9486 34.295 18.7966 34.3077 18.8207 34.323ZM24.4689 34.3188C24.5905 34.3525 24.8503 34.3537 24.9332 34.3209C24.9691 34.3068 24.8583 34.2947 24.6872 34.294C24.5138 34.2934 24.4171 34.3044 24.4689 34.3188Z"
    fill="#506873"
  />
</svg>
