<svg width="130" height="130" viewBox="0 0 130 130" fill="none" xmlns="http://www.w3.org/2000/svg">
<g clip-path="url(#clip0)">
<path d="M131.445 65.189C131.445 56.3993 120.423 48.0694 103.524 42.9037C107.423 25.703 105.69 12.0181 98.0531 7.63682C96.2928 6.6091 94.2346 6.12229 91.9868 6.12229V12.1534C93.2326 12.1534 94.2346 12.3968 95.0741 12.8565C98.7572 14.9661 100.355 22.9985 99.1093 33.3297C98.8114 35.872 98.3239 38.5495 97.7281 41.281C92.4201 39.9829 86.6247 38.9822 80.5313 38.3331C76.8753 33.3297 73.0839 28.7862 69.2654 24.8105C78.094 16.6158 86.3809 12.1263 92.0139 12.1263V6.09525C84.5665 6.09525 74.8171 11.3961 64.9594 20.5915C55.1017 11.4502 45.3523 6.20343 37.9049 6.20343V12.2345C43.5108 12.2345 51.8248 16.697 60.6534 24.8376C56.862 28.8132 53.0706 33.3297 49.4687 38.3331C43.3483 38.9822 37.5528 39.9829 32.2448 41.3081C31.6219 38.6036 31.1616 35.9802 30.8366 33.465C29.5637 23.1337 31.1345 15.1013 34.7905 12.9647C35.6029 12.4779 36.6591 12.2615 37.9049 12.2615V6.23047C35.63 6.23047 33.5718 6.71728 31.7844 7.745C24.1745 12.1263 22.4684 25.7841 26.3952 42.9308C9.55044 48.1235 -1.4176 56.4263 -1.4176 65.189C-1.4176 73.9787 9.6046 82.3086 26.5035 87.4742C22.6038 104.675 24.337 118.36 31.974 122.741C33.7343 123.769 35.7925 124.256 38.0674 124.256C45.5148 124.256 55.2642 118.955 65.1219 109.759C74.9796 118.901 84.729 124.147 92.1764 124.147C94.4512 124.147 96.5095 123.661 98.2968 122.633C105.907 118.252 107.613 104.594 103.686 87.4472C120.477 82.2815 131.445 73.9516 131.445 65.189ZM96.1845 47.1498C95.1824 50.6387 93.9367 54.2357 92.5284 57.8327C91.4181 55.6691 90.2536 53.5055 88.9808 51.3418C87.735 49.1782 86.408 47.0687 85.081 45.0133C88.9266 45.5812 92.6368 46.2844 96.1845 47.1498ZM83.7811 75.953C81.6687 79.6041 79.5022 83.0658 77.2544 86.2842C73.2193 86.6358 69.13 86.8251 65.0136 86.8251C60.9242 86.8251 56.8349 86.6358 52.8268 86.3113C50.5791 83.0929 48.3855 79.6582 46.2731 76.0341C44.2149 72.4912 42.3463 68.8942 40.6401 65.2701C42.3192 61.6461 44.2149 58.022 46.246 54.4791C48.3584 50.828 50.5249 47.3662 52.7727 44.1478C56.8078 43.7962 60.8972 43.6069 65.0136 43.6069C69.1029 43.6069 73.1922 43.7962 77.2003 44.1208C79.448 47.3392 81.6417 50.7739 83.754 54.398C85.8122 57.9409 87.6808 61.5379 89.387 65.1619C87.6808 68.786 85.8122 72.41 83.7811 75.953ZM92.5284 72.4371C93.9909 76.0611 95.2366 79.6852 96.2657 83.2011C92.718 84.0665 88.9808 84.7967 85.1081 85.3647C86.4351 83.2822 87.7621 81.1456 89.0079 78.955C90.2536 76.7914 91.4181 74.6007 92.5284 72.4371ZM65.0677 101.294C62.5491 98.698 60.0305 95.8041 57.539 92.6398C59.9764 92.748 62.4679 92.8292 64.9865 92.8292C67.5321 92.8292 70.0507 92.7751 72.5152 92.6398C70.0778 95.8041 67.5592 98.698 65.0677 101.294ZM44.919 85.3647C41.0734 84.7967 37.3632 84.0936 33.8156 83.2281C34.8176 79.7393 36.0633 76.1423 37.4716 72.5453C38.5819 74.7089 39.7464 76.8725 41.0193 79.0361C42.2921 81.1997 43.592 83.3093 44.919 85.3647ZM64.9323 29.0837C67.4509 31.68 69.9695 34.5738 72.461 37.7381C70.0236 37.6299 67.5321 37.5488 65.0136 37.5488C62.4679 37.5488 59.9493 37.6029 57.4849 37.7381C59.9222 34.5738 62.4408 31.68 64.9323 29.0837ZM44.8919 45.0133C43.5649 47.0957 42.2379 49.2323 40.9922 51.423C39.7464 53.5866 38.5819 55.7502 37.4716 57.9138C36.0092 54.2898 34.7634 50.6657 33.7343 47.1498C37.282 46.3114 41.0193 45.5812 44.8919 45.0133ZM20.3831 78.8738C10.7962 74.79 4.59451 69.4351 4.59451 65.189C4.59451 60.9429 10.7962 55.5609 20.3831 51.5041C22.7121 50.5034 25.2578 49.611 27.8847 48.7726C29.4283 54.0734 31.4595 59.5906 33.978 65.2431C31.4865 70.8685 29.4825 76.3586 27.9659 81.6325C25.2849 80.794 22.7392 79.8745 20.3831 78.8738ZM34.953 117.521C31.2699 115.412 29.6721 107.379 30.9178 97.0482C31.2157 94.506 31.7032 91.8285 32.299 89.0969C37.607 90.3951 43.4024 91.3958 49.4958 92.0448C53.1518 97.0482 56.9432 101.592 60.7617 105.567C51.9331 113.762 43.6462 118.252 38.0132 118.252C36.7945 118.225 35.7654 117.981 34.953 117.521ZM99.1905 96.913C100.463 107.244 98.8926 115.277 95.2366 117.413C94.4242 117.9 93.368 118.116 92.1222 118.116C86.5163 118.116 78.2023 113.654 69.3737 105.513C73.1651 101.538 76.9565 97.0212 80.5584 92.0178C86.6788 91.3687 92.4743 90.3681 97.7823 89.0428C98.4052 91.7744 98.8926 94.3978 99.1905 96.913ZM109.617 78.8738C107.288 79.8745 104.742 80.767 102.115 81.6054C100.572 76.3046 98.5406 70.7873 96.022 65.1349C98.5135 59.5095 100.518 54.0193 102.034 48.7455C104.715 49.5839 107.261 50.5034 109.644 51.5041C119.231 55.5879 125.433 60.9429 125.433 65.189C125.406 69.4351 119.204 74.8171 109.617 78.8738Z" fill="#61DAFB"/>
<path d="M64.9865 77.5486C71.8217 77.5486 77.3628 72.015 77.3628 65.189C77.3628 58.3629 71.8217 52.8293 64.9865 52.8293C58.1512 52.8293 52.6102 58.3629 52.6102 65.189C52.6102 72.015 58.1512 77.5486 64.9865 77.5486Z" fill="#61DAFB"/>
</g>
<defs>
<clipPath id="clip8">
<rect width="130" height="130" fill="white"/>
</clipPath>
</defs>
</svg>
