<svg width="100%" height="100%" viewBox="0 0 1920 1048" fill="none" xmlns="http://www.w3.org/2000/svg">
<g clip-path="url(#clip0)">
<path d="M81.4792 917.28L29.2888 947.415C19.2111 953.234 7.93758 955.14 -2.74993 953.59C-17.3544 951.476 -30.8755 942.933 -38.8252 929.164C-52.5974 905.316 -44.4269 874.823 -20.5741 861.05L31.6163 830.915L41.6845 848.356L81.4792 917.28Z" fill="#464646"/>
<path d="M81.4794 917.28L29.2889 947.415C19.2112 953.234 7.93768 955.14 -2.74983 953.59C-7.79023 949.727 -12.1704 944.818 -15.5471 938.976C-29.3152 915.129 -21.1446 884.636 2.70397 870.862L41.6846 848.356L81.4794 917.28Z" fill="#5A5A5A"/>
<path d="M-12.9817 995.798L-69.2895 980.71C-72.4574 979.861 -74.0614 976.329 -72.6052 973.389L-53.9738 935.689C-48.243 924.104 -35.1325 918.17 -22.6505 921.515C-19.956 922.237 -17.4529 923.348 -15.1907 924.774C-12.1025 926.722 -9.47264 929.262 -7.4204 932.206C-3.86672 937.304 -2.06248 943.626 -2.66853 950.201L-6.46397 991.261C-6.75668 994.464 -9.86802 996.632 -12.9817 995.798Z" fill="#828282"/>
<path d="M-12.9818 995.798L-53.7292 984.88C-56.8972 984.031 -58.4991 980.499 -57.0449 977.558L-38.4136 939.859C-33.919 930.776 -24.8934 925.172 -15.1908 924.774C-12.1026 926.722 -9.47267 929.262 -7.42044 932.205C-3.86676 937.304 -2.06251 943.626 -2.66857 950.201L-6.46401 991.261C-6.75672 994.464 -9.86805 996.632 -12.9818 995.798Z" fill="#AAAAAA"/>
<path d="M92.6486 931.547C92.0326 932.111 91.3427 932.617 90.5891 933.052C87.6935 934.724 84.3873 935.058 81.3736 934.251C78.3725 933.447 75.6661 931.501 74.0006 928.607L18.0674 831.728C14.7315 825.95 16.7315 818.486 22.5106 815.146C25.4009 813.477 28.7175 813.145 31.7186 813.949C34.459 814.684 36.9442 816.362 38.6225 818.842C38.7902 819.083 38.9437 819.328 39.0949 819.589L95.0328 916.468C97.9319 921.498 96.7978 927.8 92.6486 931.547Z" fill="#828282"/>
<path d="M92.6486 931.547C92.4803 931.308 92.3264 931.057 92.1767 930.797L36.2435 833.918C33.3428 828.894 34.4752 822.599 38.6225 818.842C38.7902 819.083 38.9437 819.328 39.0949 819.59L95.0328 916.468C97.9319 921.498 96.7978 927.8 92.6486 931.547V931.547Z" fill="#AAAAAA"/>
</g>
<path d="M865 -2.99976L38 824L89.5 919L1924.5 415.5V-2.99976H865Z" fill="url(#paint0_linear)"/>
<defs>
<linearGradient id="paint0_linear" x1="137.5" y1="842.5" x2="1654" y2="59" gradientUnits="userSpaceOnUse">
<stop stop-color="#FFF68E"/>
<stop offset="1" stop-color="#FFF68E" stop-opacity="0"/>
</linearGradient>
<clipPath id="clip0">
<rect width="283" height="283" fill="white" transform="translate(-19.7544 701) rotate(15)"/>
</clipPath>
</defs>
</svg>
