<svg width="130" height="130" viewBox="0 0 130 130" fill="none" xmlns="http://www.w3.org/2000/svg">
<g clip-path="url(#clip0)">
<path d="M23.0208 1H106.979C119.708 1 130 11.312 130 24.0662V104.934C130 117.688 119.708 128 106.979 128H23.0208C10.2917 128 0 117.688 0 104.934V24.0662C0 11.312 10.2917 1 23.0208 1Z" fill="#470137"/>
<path d="M68.3583 34.3782L52.1083 61.2436L69.4417 89.7372C69.55 89.9543 69.6042 90.1714 69.55 90.3885C69.4958 90.6056 69.2792 90.4427 68.9542 90.497H56.55C55.6833 90.497 55.0875 90.4427 54.7083 89.9C53.5708 87.6205 52.3792 85.3953 51.2417 83.1158C50.1042 80.8906 48.8583 78.6111 47.5583 76.2773C46.2583 73.9436 44.9583 71.6098 43.6583 69.2218H43.55C42.4125 71.5556 41.1667 73.8893 39.9208 76.2231C38.675 78.5568 37.4292 80.8906 36.2375 83.1701C34.9917 85.4496 33.7458 87.7833 32.5 90.0085C32.2833 90.5513 31.85 90.6056 31.2542 90.6056H19.3375C19.1208 90.6056 18.9583 90.7141 18.9583 90.4427C18.9042 90.2256 18.9583 90.0085 19.0667 89.8457L35.9125 62.1662L19.5 34.3239C19.3375 34.1068 19.2833 33.8897 19.3917 33.7812C19.5 33.6184 19.7167 33.5641 19.9333 33.5641H32.2292C32.5 33.5641 32.7708 33.6184 32.9875 33.6726C33.2042 33.7812 33.3667 33.944 33.5292 34.1611C34.5583 36.4949 35.75 38.8286 36.9958 41.1624C38.2958 43.4962 39.5417 45.7756 40.8958 48.0551C42.1958 50.3346 43.3875 52.6141 44.525 54.9479H44.6333C45.7708 52.5598 46.9625 50.2261 48.1542 47.9466C49.3458 45.6671 50.5917 43.3876 51.8375 41.1081C53.0833 38.8286 54.275 36.4949 55.4667 34.2697C55.5208 34.0526 55.6292 33.8355 55.7917 33.7269C56.0083 33.6184 56.225 33.5641 56.4958 33.6184H67.925C68.1958 33.5641 68.4667 33.7269 68.5208 33.9983C68.575 34.0526 68.4667 34.2697 68.3583 34.3782Z" fill="#FF61F6"/>
<path d="M93.3833 91.6367C89.375 91.691 85.3667 90.8769 81.7375 89.1944C78.325 87.6205 75.5083 85.0154 73.5583 81.8132C71.5542 78.5025 70.5792 74.3778 70.5792 69.4389C70.525 65.4226 71.5542 61.4607 73.5583 57.9872C75.6167 54.4594 78.5958 51.5286 82.1708 49.5748C85.9625 47.4581 90.5125 46.4269 95.875 46.4269C96.1459 46.4269 96.525 46.4269 97.0125 46.4812C97.5 46.5355 98.0417 46.5355 98.6917 46.5897V29.4393C98.6917 29.0594 98.8542 28.8423 99.2333 28.8423H110.229C110.5 28.788 110.717 29.0051 110.771 29.2222C110.771 29.2765 110.771 29.3308 110.771 29.3308V80.9991C110.771 81.9761 110.825 83.0615 110.879 84.2555C110.988 85.3953 111.042 86.4808 111.096 87.4034C111.096 87.7833 110.933 88.109 110.554 88.2718C107.738 89.4658 104.758 90.3342 101.725 90.8769C98.9625 91.3654 96.2 91.6367 93.3833 91.6367ZM98.6917 80.782V56.9017C98.2042 56.7931 97.7167 56.6846 97.2292 56.6303C96.6334 56.5761 96.0375 56.5218 95.4417 56.5218C93.3292 56.5218 91.2167 56.956 89.3208 57.9329C87.4792 58.8555 85.9083 60.2124 84.7167 61.9491C83.525 63.6859 82.9292 66.0196 82.9292 68.8419C82.875 70.7414 83.2 72.641 83.85 74.432C84.3917 75.8974 85.2042 77.2 86.2875 78.2855C87.3167 79.2624 88.5625 80.0222 89.9709 80.4564C91.4334 80.9449 92.95 81.1619 94.4667 81.1619C95.2792 81.1619 96.0375 81.1077 96.7417 81.0534C97.4459 81.1077 98.0417 80.9991 98.6917 80.782Z" fill="#FF61F6"/>
</g>
<defs>
<clipPath id="clip7">
<rect width="130" height="130" fill="white"/>
</clipPath>
</defs>
</svg>
