<?xml version="1.0" standalone="no"?>
<!DOCTYPE svg PUBLIC "-//W3C//DTD SVG 20010904//EN"
 "http://www.w3.org/TR/2001/REC-SVG-20010904/DTD/svg10.dtd">
<svg version="1.0" xmlns="http://www.w3.org/2000/svg"
 width="512.000000pt" height="512.000000pt" viewBox="0 0 512.000000 512.000000"
 preserveAspectRatio="xMidYMid meet">
<metadata>
Created by potrace 1.11, written by Peter Selinger 2001-2013
</metadata>
<g transform="translate(0.000000,512.000000) scale(0.100000,-0.100000)"
fill="#000000" stroke="none">
<path d="M3877 4504 c-1 -1 -38 -5 -81 -8 -238 -20 -439 -75 -631 -171 -60
-31 -112 -59 -115 -63 -3 -4 -25 -21 -50 -37 -107 -72 -242 -223 -309 -346
-30 -55 -93 -209 -85 -209 2 0 -1 -11 -6 -25 -5 -14 -12 -46 -16 -72 -3 -27
-8 -51 -10 -55 -7 -10 -6 -220 1 -263 23 -149 70 -274 146 -391 57 -88 209
-241 295 -299 32 -22 61 -42 64 -45 10 -11 146 -87 231 -128 106 -51 184 -84
313 -129 55 -19 105 -39 111 -44 5 -5 16 -9 25 -9 30 0 240 -111 297 -157 105
-85 143 -142 161 -240 9 -51 9 -68 -2 -139 -25 -159 -181 -282 -402 -318 -84
-13 -343 -15 -404 -2 -14 3 -56 10 -95 16 -158 24 -353 83 -519 156 -55 24
-101 43 -102 41 -2 -1 -5 -14 -7 -27 -3 -14 -19 -81 -37 -150 -17 -69 -33
-132 -35 -140 -2 -8 -23 -95 -48 -192 l-45 -178 54 -25 c30 -14 57 -26 61 -26
5 0 13 -4 18 -9 21 -16 256 -87 370 -111 33 -7 62 -13 65 -14 3 0 27 -4 53 -9
27 -4 58 -9 69 -11 100 -20 514 -28 643 -13 450 51 783 209 995 471 57 69 59
73 79 108 66 112 123 269 136 369 4 30 9 58 11 62 6 9 6 236 0 263 -2 11 -7
45 -11 75 -30 226 -170 452 -379 614 -160 124 -282 188 -591 311 -347 138
-495 214 -578 300 -122 125 -119 314 6 439 96 95 230 138 442 139 156 1 224
-5 368 -33 103 -20 279 -77 360 -116 l48 -23 10 27 c6 15 12 34 14 42 2 8 25
89 50 180 25 91 48 172 50 180 2 8 17 66 35 129 17 62 28 117 23 121 -21 18
-266 105 -331 116 -13 3 -52 11 -86 19 -54 12 -84 17 -186 30 -92 12 -434 27
-443 19z"/>
<path d="M1130 4440 c-4 -3 -8 -554 -8 -1225 -1 -671 -3 -1245 -6 -1275 -24
-224 -74 -359 -169 -453 -95 -93 -203 -129 -392 -131 -163 -1 -278 14 -412 53
-28 8 -33 7 -34 -7 0 -9 -2 -26 -3 -37 -2 -11 -6 -42 -10 -70 -6 -49 -14 -104
-21 -155 -2 -14 -11 -78 -20 -142 -9 -65 -17 -125 -19 -135 -2 -10 -7 -43 -10
-73 l-7 -56 53 -14 c29 -8 62 -15 73 -17 11 -2 40 -8 65 -13 115 -27 272 -38
475 -35 116 2 226 6 245 9 336 62 520 147 689 318 169 170 295 468 325 768 3
30 9 82 12 115 11 104 10 2575 -1 2576 -38 4 -819 3 -825 -1z"/>
</g>
</svg>
